<svg clip-rule="evenodd" fill-rule="evenodd" stroke-miterlimit="10" viewBox="0 0 579 290" xmlns="http://www.w3.org/2000/svg"><path d="m-4.05 4.05h8.1" fill="none" stroke="#a8dab5" stroke-width=".37" transform="matrix(0 -.94936118 -.94936118 0 546.2397316991 149.85171133416)"/><path d="m-2 2h4" fill="none" stroke="#a8dab5" stroke-width=".37" transform="matrix(0 -.94936118 -.94936118 0 544.29449064128 140.96094388346)"/><ellipse cy="-1.657" fill="none" rx="1.658" ry="1.657" stroke="#a8dab5" stroke-width=".37" transform="matrix(-.94936118 0 0 .94936118 542.39576828128 146.00679855516)"/><path d="m0-30.211c-3.297 0-5.97 6.763-5.97 15.106 0 8.342 2.673 15.105 5.97 15.105s5.97-6.763 5.97-15.105c0-8.343-2.673-15.106-5.97-15.106m0 .5c2.642 0 5.47 5.869 5.47 14.606s-2.828 14.605-5.47 14.605-5.47-5.868-5.47-14.605 2.828-14.606 5.47-14.606" fill="#fde293" fill-rule="nonzero" transform="matrix(.94936118 0 0 .94936118 481.13539005824 102.07131250594)"/><path d="m0 0h28.609" fill="none" stroke="#fde293" stroke-width=".5" transform="matrix(.94936118 0 0 .94936118 467.5851579361 82.95108340462)"/><path d="m0-30.211c-8.343 0-15.106 6.763-15.106 15.106 0 8.342 6.763 15.105 15.106 15.105 8.342 0 15.105-6.763 15.105-15.105 0-8.343-6.763-15.106-15.105-15.106m0 .5c8.053 0 14.605 6.552 14.605 14.606 0 8.053-6.552 14.605-14.605 14.605-8.054 0-14.606-6.552-14.606-14.605 0-8.054 6.552-14.606 14.606-14.606" fill="#fde293" fill-rule="nonzero" transform="matrix(.94936118 0 0 .94936118 481.13539005824 102.07131250594)"/><path d="m0 0h28.429" fill="none" stroke="#fde293" stroke-width=".5" transform="matrix(.94936118 0 0 .94936118 467.6706004423 92.51124542334)"/><path d="m0 20.912-12.073-20.912-12.073 20.912" fill="#fad2cf" fill-rule="nonzero" transform="matrix(.94936118 0 0 .94936118 564.16082269396 187.2783771333)"/><path d="m187.618 103.503h9.244v3.484h-9.244z" fill="#fde293" transform="matrix(-.94936118 0 0 .94936118 352.2947362369 97.28938024228)"/><path d="m252.79599789943 9.93201254222h13.41827091812v33.10802274068h-13.41827091812z" fill="#fad2cf" stroke-width=".94936118"/><path d="m523.13702 120.481h14.135v34.873001h-14.135z" fill="#aecbfa" transform="matrix(-.94936118 0 0 .94936118 993.9964386343 35.25337393518)"/><path d="m-9.596 0h9.596" fill="none" stroke="#4285f4" stroke-width=".5" transform="matrix(-.94936118 0 0 .94936118 479.37527443052 174.31674894276)"/><path d="m-9.596 0h9.596" fill="none" stroke="#4285f4" stroke-width=".5" transform="matrix(-.94936118 0 0 .94936118 479.37527443052 167.22407156698)"/><path d="m85.10367765416 109.26841011791h16.58344109224v33.1070733795h-16.58344109224z" fill="#fad2cf" stroke-width=".94936118"/><path d="m0 12.47h34.873c0-6.887-5.583-12.47-12.47-12.47h-9.933c-6.887 0-12.47 5.583-12.47 12.47" fill="#fbbc04" fill-rule="nonzero" transform="matrix(.94936118 0 0 .94936118 54.10086427949 21.7203252504)"/><path d="m22.08033571986 229.05026810394h28.55393621086v33.1070733795h-28.55393621086z" fill="#fde293" stroke-width=".94936118"/><path d="m0-34.874 20.134 34.874v-34.874z" fill="#aecbfa" fill-rule="nonzero" transform="matrix(.94936118 0 0 .94936118 145.70804730182 42.22728622734)"/><path d="m0-10.067-17.437-10.067-17.437 30.201z" fill="#4285f4" fill-rule="nonzero" transform="matrix(.94936118 0 0 .94936118 178.81606909314 273.00664104848)"/><path d="m113.814 87.869003h11.627v8.718h-11.627z" fill="#ea4335" transform="matrix(-.94936118 0 0 .94936118 214.4237588714 122.0050492024)"/><path d="m-4.502 1.865h8.886v8.719h-8.886z" fill="#4285f4" transform="matrix(-.67129993591 -.67129993591 -.67129993591 .67129993591 556.83745055144 31.34143625687)"/><path d="m591.19 37.556h8.886v8.718h-8.886z" fill="#4285f4" transform="matrix(-.94936118 0 0 .94936118 1118.2298426491 217.53546730108)"/><path d="m366.996 64.528h8.718v8.718h-8.718z" fill="#ea4335" transform="matrix(-.94936118 0 0 .94936118 692.3843917483 166.32312780716)"/><path d="m582.34399 221.681h11.625v8.718h-11.625z" fill="#ea4335" transform="matrix(-.94936118 0 0 .94936118 1104.0273993963 -132.06678723392)"/><path d="m0-23.601-12.33 12.33-8.219-8.22-6.165 6.164 8.22 8.22c5.107 5.107 13.387 5.107 18.494 0s5.107-13.387 0-18.494" fill="#fbbc04" fill-rule="nonzero" transform="matrix(.94936118 0 0 .94936118 429.30881388086 279.34077884144)"/><path d="m-32.201 6.451h34.873c0 6.887-5.583 12.47-12.47 12.47h-9.933c-6.887 0-12.47-5.583-12.47-12.47" fill="#a8dab5" fill-rule="nonzero" transform="matrix(-.67129993591 -.67129993591 -.67129993591 .67129993591 265.67122472898 229.18602770204)"/><path d="m389.46602387862 72.08762886439h33.1070733795v15.00370408872h-33.1070733795z" fill="#a8dab5" stroke-width=".94936118"/><circle cx="-2.216" fill="none" r="2.216" stroke="#aecbfa" stroke-width=".5" transform="matrix(0 -.94936118 -.94936118 0 143.60426292694 228.779701117)"/><path d="m0-4.432c-1.224 0-2.216.992-2.216 2.216s.992 2.216 2.216 2.216 2.216-.992 2.216-2.216-.992-2.216-2.216-2.216m0 .5c.946 0 1.716.77 1.716 1.716 0 .947-.77 1.716-1.716 1.716s-1.716-.769-1.716-1.716c0-.946.77-1.716 1.716-1.716" fill="#fde293" fill-rule="nonzero" transform="matrix(.94936118 0 0 .94936118 207.29975257668 56.00223214079)"/><path d="m0-4.433c-1.224 0-2.216.992-2.216 2.216 0 1.224.992 2.217 2.216 2.217s2.216-.993 2.216-2.217-.992-2.216-2.216-2.216m0 .5c.946 0 1.716.77 1.716 1.716 0 .947-.77 1.717-1.716 1.717s-1.716-.77-1.716-1.717c0-.946.77-1.716 1.716-1.716" fill="#fde293" fill-rule="nonzero" transform="matrix(.94936118 0 0 .94936118 207.29975257668 64.17518760329)"/><path d="m0-4.433c-1.224 0-2.216.992-2.216 2.216 0 1.224.992 2.217 2.216 2.217s2.216-.993 2.216-2.217-.992-2.216-2.216-2.216m0 .5c.946 0 1.716.77 1.716 1.716s-.77 1.717-1.716 1.717-1.716-.771-1.716-1.717.77-1.716 1.716-1.716" fill="#fde293" fill-rule="nonzero" transform="matrix(.94936118 0 0 .94936118 207.29975257668 47.83117540065)"/><path d="m-1.788.741h3.576v3.576h-3.576z" fill="none" stroke="#ea4335" stroke-width=".5" transform="matrix(-.67129993591 -.67129993591 -.67129993591 .67129993591 130.82681080532 173.29143886836)"/><path d="m-3.599-1.491h2.981v2.981h-2.981z" fill="#a8dab5" transform="matrix(-.67129993591 -.67129993591 -.67129993591 .67129993591 110.72883462472 75.41011767965)"/><path d="m-3.599-1.491h2.981v2.981h-2.981z" fill="none" stroke="#1e8e3e" stroke-width=".5" transform="matrix(-.67129993591 -.67129993591 -.67129993591 .67129993591 105.64215742228 70.32353541332)"/><path d="m-3.599-1.491h2.982v2.982h-2.982z" fill="none" stroke="#a8dab5" stroke-width=".5" transform="matrix(-.67129993591 -.67129993591 -.67129993591 .67129993591 99.43903147216 64.12088414379)"/><circle cx="2.108" fill="none" r="2.108" stroke="#174ea6" stroke-width=".5" transform="matrix(0 .94936118 .94936118 0 429.20628287342 32.06190645637)"/><circle cx="2.108" fill="none" r="2.108" stroke="#174ea6" stroke-width=".5" transform="matrix(0 .94936118 .94936118 0 464.04309137352 136.5587560918)"/><path d="m3.396-3.396c-1.875 0-3.396 1.521-3.396 3.396 0 1.876 1.521 3.396 3.396 3.396 1.876 0 3.396-1.52 3.396-3.396 0-1.875-1.52-3.396-3.396-3.396" fill="#fde293" fill-rule="nonzero" transform="matrix(0 .94936118 .94936118 0 421.67025382658 196.5393954442)"/><path d="m0 17.437h4.122c4.815 0 8.718-3.903 8.718-8.718s-3.903-8.719-8.718-8.719" fill="none" stroke="#e37400" stroke-width=".5" transform="matrix(.94936118 0 0 .94936118 492.60841991854 238.13660490708)"/><path d="m0 6.352-6.351-6.352-6.352 6.352" fill="none" stroke="#aecbfa" stroke-width=".5" transform="matrix(.94936118 0 0 .94936118 392.20398152174 215.7449721156)"/><path d="m0-9.095 9.095 9.095 9.095-9.095" fill="none" stroke="#aecbfa" stroke-width=".5" transform="matrix(.94936118 0 0 .94936118 290.6669552372 83.03158923269)"/><path d="m-3.013-21.467h9.871c4.816 0 8.719 3.903 8.719 8.719.001 4.814-3.903 8.718-8.718 8.718h-15.436" fill="none" stroke="#ea4335" stroke-width=".5" transform="matrix(-.67129993591 .67129993591 .67129993591 .67129993591 549.33369978472 135.3103461401)"/><path d="m-11.988-4.966h14.045" fill="none" stroke="#ea4335" stroke-width=".5" transform="matrix(-.6712657589 .67133316355 .67133316355 .6712657589 548.04161921874 132.4812498237)"/><path d="m-14.834-6.144h17.379" fill="none" stroke="#ea4335" stroke-width=".5" transform="matrix(-.67132746738 .67127240443 .67127240443 .67132746738 546.25017467208 130.03474606284)"/><path d="m-12.558-5.202h14.713" fill="none" stroke="#ea4335" stroke-width=".5" transform="matrix(-.67129993591 .67129993591 .67129993591 .67129993591 542.447033785 126.75565254712)"/><path d="m-7.023 7.023h14.046" fill="none" stroke="#4285f4" stroke-width=".5" transform="matrix(0 -.94936118 -.94936118 0 46.93575064568 89.49702367684)"/><path d="m-8.689 8.689h17.378" fill="none" stroke="#4285f4" stroke-width=".5" transform="matrix(0 -.94936118 -.94936118 0 44.40427905921 91.0796087639)"/><path d="m0 7.356h7.356v-7.356" fill="none" stroke="#4285f4" stroke-width=".5" transform="matrix(.94936118 0 0 .94936118 25.05772225258 82.83013479029)"/><path d="m0-24.154c4.815 0 8.718 3.903 8.718 8.718v15.436" fill="none" stroke="#4285f4" stroke-width=".5" transform="matrix(.94936118 0 0 .94936118 35.79509213449 91.83814834672)"/><path d="m0 9.958c-.003-3.01-1.566-5.937-4.361-7.55-4.17-2.408-9.502-.979-11.909 3.191" fill="none" stroke="#4285f4" stroke-width=".5" transform="matrix(.94936118 0 0 .94936118 44.07323681574 67.73026041404)"/><path d="m-8.873-5.153h11.865" fill="none" stroke="#4285f4" stroke-width=".5" transform="matrix(-.47052428675 .82455720992 .82455720992 .47052428675 28.70089578083 82.78712872884)"/><path d="m3.68-7.885h9.871c4.815 0 8.719 3.904 8.719 8.719s-3.903 8.718-8.718 8.718l-8.534.001" fill="none" stroke="#34a853" stroke-width=".5" transform="matrix(.67129993591 .67129993591 .67129993591 -.67129993591 428.48192029308 202.24220805246)"/><path d="m-.916-2.211h6.254" fill="none" stroke="#34a853" stroke-width=".5" transform="matrix(.67129993591 .67129993591 .67129993591 -.67129993591 437.0014875224 200.346333776)"/><path d="m-1.062-2.564h7.253" fill="none" stroke="#34a853" stroke-width=".5" transform="matrix(.67129993591 .67129993591 .67129993591 -.67129993591 433.75657100916 202.4444219838)"/><path d="m-2.545-6.145h17.379" fill="none" stroke="#34a853" stroke-width=".5" transform="matrix(.67129993591 .67129993591 .67129993591 -.67129993591 427.44996469042 197.14888532176)"/><path d="m-5.265 5.265h10.53" fill="none" stroke="#fbbc04" stroke-width=".5" transform="matrix(0 -.94936118 -.94936118 0 224.75470723216 76.88001359464)"/><path d="m-4.266 4.266h8.532" fill="none" stroke="#fbbc04" stroke-width=".5" transform="matrix(0 -.94936118 -.94936118 0 219.63859983314 74.66467928111)"/><path d="m-4.766 4.766h9.532" fill="none" stroke="#fbbc04" stroke-width=".5" transform="matrix(0 -.94936118 -.94936118 0 215.94558484294 74.18999869111)"/><path d="m-8.766 8.766h17.532" fill="none" stroke="#fbbc04" stroke-width=".5" transform="matrix(0 -.94936118 -.94936118 0 215.57628334392 70.39255397111)"/><path d="m-6.571 5.036h10.43" fill="none" stroke="#fbbc04" stroke-width=".5" transform="matrix(-.24685764083 -.91670505413 -.91670505413 .24685764083 206.47190962772 76.73675499258)"/><path d="m0-4.242c.988 3.73 4.387 6.48 8.428 6.48 4.815 0 8.718-3.903 8.718-8.718" fill="none" stroke="#fbbc04" stroke-width=".5" transform="matrix(.94936118 0 0 .94936118 203.477624466 88.03102014268)"/><path d="m44.393002 49.977001h14.594v14.594h-14.594z" fill="none" stroke="#fff" stroke-width=".5" transform="matrix(-.94936118 0 0 .94936118 85.4293085389 188.37299057384)"/><path d="m98.001999 27.322001h14.594v14.594h-14.594z" fill="#a8dab5" transform="matrix(-.94936118 0 0 .94936118 187.21791553614 231.38854563964)"/><path d="m-18.653 7.727h21.853" fill="none" stroke="#fff" stroke-width=".5" transform="matrix(-.67129993591 -.67129993591 -.67129993591 .67129993591 87.17423438774 253.79916565472)"/><path d="m-3.215 7.762h21.953" fill="none" stroke="#fff" stroke-width=".5" transform="matrix(.67129993591 -.67129993591 -.67129993591 -.67129993591 87.20746202904 274.7240354231)"/><path d="m-10.492-10.493c5.794 0 10.492 4.698 10.492 10.492 0 5.795-4.698 10.493-10.492 10.493-5.795 0-10.493-4.698-10.493-10.493 0-5.794 4.698-10.492 10.493-10.492" fill="#fde293" fill-rule="nonzero" transform="matrix(0 -.94936118 -.94936118 0 357.45356488902 19.53698440863)"/><path d="m0 9.649 8.356-4.825-8.356-4.824z" fill="none" stroke="#f9ab00" stroke-width=".5" transform="matrix(.94936118 0 0 .94936118 354.64155707386 25.07062085462)"/><path d="m-6.345-6.345h12.69" fill="none" stroke="#aecbfa" stroke-width=".5" transform="matrix(0 .94936118 .94936118 0 330.43759378976 264.1623922956)"/><path d="m0 0h12.69" fill="none" stroke="#aecbfa" stroke-width=".5" transform="matrix(.94936118 0 0 .94936118 318.39020041556 264.1623922956)"/><path d="m0-16.759h-20.423v12.58h16.244l4.179 4.179v-4.179zm-.5.5v15.052l-3.325-3.325-.147-.147h-.207-15.744v-11.58z" fill="#ea4335" fill-rule="nonzero" transform="matrix(.94936118 0 0 .94936118 112.0161683848 135.7612927006)"/><path d="m-7.035-7.035h14.07" fill="none" stroke="#34a853" stroke-width=".5" transform="matrix(0 .94936118 .94936118 0 112.2535086798 255.00960115922)"/><path d="m-8.704-8.704h17.408" fill="none" stroke="#34a853" stroke-width=".5" transform="matrix(0 .94936118 .94936118 0 109.71776496802 253.42416798862)"/><path d="m0-7.368h5.741v7.368" fill="none" stroke="#34a853" stroke-width=".5" transform="matrix(.94936118 0 0 .94936118 91.88306584054 261.68740769934)"/><path d="m0 21.754c4.823 0 8.733-3.91 8.733-8.733v-13.021" fill="none" stroke="#34a853" stroke-width=".5" transform="matrix(.94936118 0 0 .94936118 101.09281864772 252.66372968344)"/><path d="m0-8.736c-.003 3.015-1.569 5.947-4.368 7.563-1.378.795-2.882 1.173-4.367 1.171h-9.701" fill="none" stroke="#34a853" stroke-width=".5" transform="matrix(.94936118 0 0 .94936118 109.38548855502 273.3189808767)"/><path d="m7.285-14.652c-3.197 0-5.798 2.601-5.798 5.798 0 3.198 2.601 5.799 5.798 5.799h13.165v10.34" fill="none" stroke="#a8dab5" stroke-width=".5" transform="matrix(0 .94936118 .94936118 0 33.621624649 153.93586313052)"/><path d="m0 5.798c0-3.197 2.601-5.798 5.798-5.798 3.198 0 5.799 2.601 5.799 5.798" fill="none" stroke="#34a853" stroke-width=".5" transform="matrix(.94936118 0 0 .94936118 39.87573129449 155.34756320518)"/><path d="m0-11.199c0 6.185-5.014 11.199-11.199 11.199s-11.199-5.014-11.199-11.199z" fill="#a8dab5" fill-rule="nonzero" transform="matrix(.94936118 0 0 .94936118 45.93028221994 191.50873055138)"/><path d="m0-4.939c0 2.723-2.216 4.939-4.939 4.939-2.724 0-4.939-2.216-4.939-4.939" fill="none" stroke="#ea4335" stroke-width=".5" transform="matrix(.94936118 0 0 .94936118 491.57741367706 17.54959171442)"/><path d="m-11.516-4.77c3.726 3.726 9.766 3.726 13.492 0" fill="none" stroke="#fad2cf" stroke-width=".5" transform="matrix(-.67129993591 .67129993591 .67129993591 .67129993591 500.00394351074 42.37538657142)"/><path d="m-2.051-16.041c-2.724 0-4.94 2.216-4.94 4.939 0 2.724 2.216 5.008 4.94 5.008l-13.99 8.145v-8.808" fill="none" stroke="#ea4335" stroke-width=".5" transform="matrix(0 -.94936118 -.94936118 0 493.52455345724 10.91308238563)"/><path d="m496.43815241227 7.436142h8.36102391226v5.42464978252h-8.36102391226z" fill="#fff" stroke-width=".94936118"/><path d="m-10.827 0h10.827" fill="none" stroke="#a8dab5" stroke-width=".5" transform="matrix(-.94936118 0 0 .94936118 215.92469889698 226.00946519376)"/><path d="m-4.598 0h4.598" fill="none" stroke="#a8dab5" stroke-width=".5" transform="matrix(-.94936118 0 0 .94936118 207.3510180804 226.00946519376)"/><path d="m-4.708-1.95h3.9v3.9h-3.9z" fill="#34a853" transform="matrix(-.67129993591 -.67129993591 -.67129993591 .67129993591 211.96871085992 224.15821089276)"/><path d="m-7.023-7.023h14.046" fill="none" stroke="#fbbc04" stroke-width=".5" transform="matrix(0 .94936118 .94936118 0 202.84060311422 223.35789941802)"/><path d="m-8.689-8.689h17.378" fill="none" stroke="#fbbc04" stroke-width=".5" transform="matrix(0 .94936118 .94936118 0 208.53582083304 221.77531433096)"/><path d="m0-7.356h-7.356v7.356" fill="none" stroke="#fbbc04" stroke-width=".5" transform="matrix(.94936118 0 0 .94936118 211.38485373422 230.02431362398)"/><path d="m0 24.154c-4.815 0-8.718-3.903-8.718-8.718v-15.436" fill="none" stroke="#fbbc04" stroke-width=".5" transform="matrix(.94936118 0 0 .94936118 200.64757878842 221.01677474814)"/><path d="m0-9.957c.003 3.01 1.566 5.937 4.361 7.55 4.17 2.407 9.502.978 11.909-3.192" fill="none" stroke="#fbbc04" stroke-width=".5" transform="matrix(.94936118 0 0 .94936118 192.36914929882 245.12390319188)"/><path d="m-2.992 5.153h11.865" fill="none" stroke="#fbbc04" stroke-width=".5" transform="matrix(.47052428675 -.82455720992 -.82455720992 -.47052428675 213.47249896904 239.76570869196)"/><path d="m0-11.452c-3.163 0-5.726 2.563-5.726 5.726 0 3.162 2.563 5.726 5.726 5.726 3.162 0 5.726-2.564 5.726-5.726 0-3.163-2.564-5.726-5.726-5.726m0 .51c2.876 0 5.215 2.34 5.215 5.216s-2.339 5.215-5.215 5.215-5.216-2.339-5.216-5.215 2.34-5.216 5.216-5.216" fill="#fde293" fill-rule="nonzero" transform="matrix(.94936118 0 0 .94936118 20.27522037221 92.94605284378)"/><path d="m286.56286685606 117.89716337654h13.41827091812v33.1070733795h-13.41827091812z" fill="#fad2cf" stroke-width=".94936118"/><path d="m392.20399101535 117.89716337654h13.4192202793v33.1070733795h-13.4192202793z" fill="#aecbfa" stroke-width=".94936118"/><path d="m167.4683549086 117.89716337654h13.4192202793v33.1070733795h-13.4192202793z" fill="#a8dab5" stroke-width=".94936118"/><path d="m-23.672 11.201h34.873c0 6.887-5.583 12.471-12.47 12.471h-9.933c-6.887 0-12.47-5.584-12.47-12.471" fill="#fbbc04" fill-rule="nonzero" transform="matrix(0 -.94936118 -.94936118 0 228.03569947024 128.53095795372)"/><path d="m217.40190489306 117.89716337654h15.00370408872v33.1070733795h-15.00370408872z" fill="#fde293" stroke-width=".94936118"/><path d="m0-34.873 20.134 34.873v-34.873z" fill="#aecbfa" fill-rule="nonzero" transform="matrix(.94936118 0 0 .94936118 240.52834323786 151.00423580668)"/><path d="m0-34.873h-20.134v34.873z" fill="#4285f4" fill-rule="nonzero" transform="matrix(.94936118 0 0 .94936118 278.7572192341 151.00423580668)"/><path d="m0-34.873c9.63 0 17.437 7.807 17.437 17.437 0 9.629-7.807 17.436-17.437 17.436z" fill="#34a853" fill-rule="nonzero" transform="matrix(.94936118 0 0 .94936118 180.88662582672 151.00423580668)"/><path d="m0 21.557c5.953 0 10.778-4.826 10.778-10.778 0-5.953-4.825-10.779-10.778-10.779h-7.067v8.25" fill="none" stroke="#0d652d" stroke-width=".5" transform="matrix(.94936118 0 0 .94936118 180.88662582672 124.21801011298)"/><path d="m0 26.155c-7.223 0-13.078-5.855-13.078-13.077 0-7.223 5.855-13.078 13.078-13.078z" fill="#fbbc04" fill-rule="nonzero" transform="matrix(.94936118 0 0 .94936118 367.14844125918 117.89716337654)"/><path d="m329.37701 180.065h11.627v8.718h-11.627z" fill="#ea4335" transform="matrix(-.94936118 0 0 .94936118 623.71804696008 -53.04955750016)"/><path d="m417.63199 180.065h8.886v8.718h-8.886z" fill="#4285f4" transform="matrix(-.94936118 0 0 .94936118 788.6875898475 -53.04955750016)"/><path d="m440.65302 180.065h8.886v8.718h-8.886z" fill="#4285f4" transform="matrix(-.94936118 0 0 .94936118 832.39807729706 -53.04955750016)"/><path d="m329.37601 162.62801h8.719v8.718h-8.719z" fill="#ea4335" transform="matrix(-.94936118 0 0 .94936118 620.95540592628 -19.94153570884)"/><path d="m400.125 180.065h11.625v8.718h-11.625z" fill="#fbbc04" transform="matrix(-.94936118 0 0 .94936118 758.046957763 -53.04955750016)"/><path d="m0-26.155v17.437h-11.625v8.718h11.625c7.222 0 13.078-5.855 13.078-13.077 0-7.223-5.856-13.078-13.078-13.078" fill="#fde293" fill-rule="nonzero" transform="matrix(.94936118 0 0 .94936118 367.14844125918 151.00423580668)"/><path d="m0 14.95c-1.618-1.583-2.621-3.79-2.621-6.231 0-4.816 3.903-8.719 8.718-8.719h6.539" fill="none" stroke="#e37400" stroke-width=".5" transform="matrix(.94936118 0 0 .94936118 361.35923678354 122.03542876016)"/><path d="m0 0h23.021" fill="none" stroke="#174ea6" stroke-width=".5" transform="matrix(.94936118 0 0 .94936118 387.985969799 122.11517509928)"/><path d="m-23.671 11.202h34.873c0 6.887-5.583 12.47-12.47 12.47h-9.933c-6.887 0-12.47-5.583-12.47-12.47" fill="#34a853" fill-rule="nonzero" transform="matrix(0 -.94936118 -.94936118 0 341.38467755634 128.53095795372)"/><path d="m330.75087348555 117.89716337654h15.00370408872v33.1070733795h-15.00370408872z" fill="#a8dab5" stroke-width=".94936118"/><g fill="none"><path d="m-2.251.008h2.251" stroke="#0d652d" stroke-width=".5" transform="matrix(-.94934029405 -.00632612518 -.00632612518 .94934029405 324.92180533396 129.42905363)"/><path d="m-15.48 0h15.48" stroke="#0d652d" stroke-width=".5" transform="matrix(-.94936118 0 0 .94936118 331.0575266403 129.47082552192)"/><path d="m-4.622 0h4.622" stroke="#0d652d" stroke-width=".5" transform="matrix(-.94936118 0 0 .94936118 341.36569033274 139.4305736613)"/><path d="m-3.514 0h3.514" stroke="#0d652d" stroke-width=".5" transform="matrix(-.94936118 0 0 .94936118 334.02712841134 139.4305736613)"/><circle cx="-2.216" r="2.216" stroke="#174ea6" stroke-width=".5" transform="matrix(0 -.94936118 -.94936118 0 259.64278123598 135.32838400252)"/><ellipse cx="2.217" rx="2.216" ry="2.217" stroke="#174ea6" stroke-width=".5" transform="matrix(0 .94936118 .94936118 0 267.00317846452 122.57846335512)"/><path d="m-8.324-4.806h11.099" stroke="#174ea6" stroke-width=".5" transform="matrix(-.47464926108 .82218950313 .82218950313 .47464926108 265.95128627708 135.63028085776)"/><ellipse cx="-2.217" rx="2.216" ry="2.217" stroke="#174ea6" stroke-width=".5" transform="matrix(0 -.94936118 -.94936118 0 252.28143464626 122.57846335512)"/><path d="m-2.775-4.806h11.099" stroke="#174ea6" stroke-width=".5" transform="matrix(.47464926108 .82218950313 .82218950313 -.47464926108 258.6022813827 126.50597055678)"/><path d="m-1.788.741h3.577v3.577h-3.577z" stroke="#0d652d" stroke-width=".5" transform="matrix(-.67129993591 -.67129993591 -.67129993591 .67129993591 175.8749481575 132.75276712118)"/><path d="m-3.599-1.491h2.981v2.981h-2.981z" stroke="#0d652d" stroke-width=".5" transform="matrix(-.67129993591 -.67129993591 -.67129993591 .67129993591 337.9498888071 138.01507614192)"/><path d="m-3.599-1.491h2.981v2.981h-2.981z" stroke="#0d652d" stroke-width=".5" transform="matrix(-.67129993591 -.67129993591 -.67129993591 .67129993591 327.68444636776 128.05627736372)"/><circle cx="2.108" r="2.108" stroke="#174ea6" stroke-width=".5" transform="matrix(0 .94936118 .94936118 0 398.91406634198 127.11546043434)"/><circle cx="2.108" r="2.108" stroke="#174ea6" stroke-width=".5" transform="matrix(0 .94936118 .94936118 0 398.91406634198 134.78724812992)"/><circle cx="2.108" r="2.108" stroke="#174ea6" stroke-width=".5" transform="matrix(0 .94936118 .94936118 0 398.91406634198 142.4590358255)"/><path d="m0 17.437h4.122c4.815 0 8.718-3.903 8.718-8.718s-3.903-8.719-8.718-8.719" stroke="#e37400" stroke-width=".5" transform="matrix(.94936118 0 0 .94936118 363.23422511404 130.3119595274)"/><path d="m0-8.982h-8.982v8.982" stroke="#a50e0e" stroke-width=".5" transform="matrix(.94936118 0 0 .94936118 301.80011379506 147.087171578)"/><path d="m0-12.862h-12.862v12.862" stroke="#a50e0e" stroke-width=".5" transform="matrix(.94936118 0 0 .94936118 305.48268581228 134.24326417378)"/><path d="m-15.867 0h15.867" stroke="#e37400" stroke-width=".5" transform="matrix(-.94936118 0 0 .94936118 217.34209513872 129.47082552192)"/><path d="m-15.867 0h15.867" stroke="#e37400" stroke-width=".5" transform="matrix(-.94936118 0 0 .94936118 217.34209513872 134.4511742722)"/><path d="m-15.867 0h15.867" stroke="#e37400" stroke-width=".5" transform="matrix(-.94936118 0 0 .94936118 217.34209513872 139.4305736613)"/><path d="m-3.784-25.262c-4.307 2.154-6.052 7.39-3.899 11.697l3.899 7.798c2.153 4.306 7.389 6.053 11.696 3.899l5.849-2.924" stroke="#202124" stroke-width=".46" transform="matrix(-.84914376576 .42454767417 .42454767417 .84914376576 341.5527144852 188.68912784678)"/><path d="m0-26.155c4.815 0 8.718 3.903 8.718 8.718v8.719c0 4.814-3.903 8.718-8.718 8.718s-8.718-3.904-8.718-8.718v-8.719c0-4.815 3.903-8.718 8.718-8.718z" stroke="#202124" stroke-width=".46" transform="matrix(.94936118 0 0 .94936118 277.79456699758 190.46158516984)"/><path d="m-13.036-13.036h26.072" stroke="#202124" stroke-width=".46" transform="matrix(0 .94936118 .94936118 0 318.50792120188 178.08571282736)"/><path d="m0 4.359h-12.969v-4.359" stroke="#202124" stroke-width=".46" transform="matrix(.94936118 0 0 .94936118 252.62225530988 186.32331978622)"/><path d="m9.749-1.74c-2.384 2.383-2.384 6.248 0 8.632 3.064 3.065 3.064 8.032 0 11.096s-8.031 3.064-11.096-.001l-4.316-4.316" stroke="#202124" stroke-width=".46" transform="matrix(.67129993591 .67129993591 .67129993591 -.67129993591 234.93375780412 178.6107095599)"/><path d="m0-17.437c-4.815 0-8.718 3.903-8.718 8.718s3.903 8.719 8.718 8.719 8.718-3.904 8.718-8.719" stroke="#202124" stroke-width=".46" transform="matrix(.94936118 0 0 .94936118 334.04136882904 182.1850544026)"/></g></svg>