<svg clip-rule="evenodd" fill-rule="evenodd" stroke-miterlimit="10" viewBox="0 0 1083 146" xmlns="http://www.w3.org/2000/svg"><path d="m315.242 153.91h14.134v34.873h-14.134z" fill="#fad2cf" transform="matrix(4.166678704 0 0 4.16666989556 -790.81245704 -641.290973202)"/><path d="m426.518 153.91h14.135v34.873h-14.135z" fill="#aecbfa" transform="matrix(4.166678704 0 0 4.16666989556 -790.81245704 -641.290973202)"/><path d="m189.795 153.91h14.135v34.873h-14.135z" fill="#a8dab5" transform="matrix(4.166678704 0 0 4.16666989556 -790.81245704 -641.290973202)"/><path d="m-23.672 11.201h34.873c0 6.887-5.583 12.471-12.47 12.471h-9.933c-6.887 0-12.47-5.584-12.47-12.471" fill="#fbbc04" fill-rule="nonzero" transform="matrix(0 -4.16666989556 -4.166678704 0 265.8275456 46.672514024)"/><path d="m242.392 153.91h15.804v34.873h-15.804z" fill="#fde293" transform="matrix(4.166678704 0 0 4.16666989556 -790.81245704 -641.290973202)"/><path d="m0-34.873 20.134 34.873v-34.873z" fill="#aecbfa" fill-rule="nonzero" transform="matrix(4.166678704 0 0 4.16666989556 320.659342 145.305843864)"/><path d="m0-34.873h-20.134v34.873z" fill="#4285f4" fill-rule="nonzero" transform="matrix(4.166678704 0 0 4.16666989556 488.437856 145.305843864)"/><path d="m0-34.873c9.63 0 17.437 7.807 17.437 17.437 0 9.629-7.807 17.436-17.437 17.436z" fill="#34a853" fill-rule="nonzero" transform="matrix(4.166678704 0 0 4.16666989556 58.8943568 145.305843864)"/><path d="m0 21.557c5.953 0 10.778-4.826 10.778-10.778 0-5.953-4.825-10.779-10.778-10.779h-7.067v8.25" fill="none" stroke="#0d652d" stroke-width=".12" transform="matrix(4.166678704 0 0 4.16666989556 58.8943568 27.742532554)"/><path d="m0 26.155c-7.223 0-13.078-5.855-13.078-13.077 0-7.223 5.855-13.078 13.078-13.078z" fill="#fbbc04" fill-rule="nonzero" transform="matrix(4.166678704 0 0 4.16666989556 876.382398 .000163608)"/><path d="m329.377 180.065h11.627v8.718h-11.627z" fill="#ea4335" transform="matrix(-4.166678704 0 0 4.16666989556 2002.448048 -750.269236292)"/><path d="m417.632 180.065h8.886v8.718h-8.886z" fill="#4285f4" transform="matrix(-4.166678704 0 0 4.16666989556 2726.48142 -750.269236292)"/><path d="m440.653 180.065h8.886v8.718h-8.886z" fill="#4285f4" transform="matrix(-4.166678704 0 0 4.16666989556 2918.3315 -750.269236292)"/><path d="m329.376 162.628h8.719v8.718h-8.719z" fill="#ea4335" transform="matrix(-4.166678704 0 0 4.16666989556 1990.316942 -604.961561832)"/><path d="m400.125 180.065h11.625v8.718h-11.625z" fill="#fbbc04" transform="matrix(-4.166678704 0 0 4.16666989556 2592.005752 -750.269236292)"/><path d="m0-26.155v17.437h-11.625v8.718h11.625c7.222 0 13.078-5.855 13.078-13.077 0-7.223-5.856-13.078-13.078-13.078" fill="#fde293" fill-rule="nonzero" transform="matrix(4.166678704 0 0 4.16666989556 876.382398 145.306840966)"/><path d="m0 14.95c-1.618-1.583-2.621-3.79-2.621-6.231 0-4.816 3.903-8.719 8.718-8.719h6.539" fill="none" stroke="#e37400" stroke-width=".12" transform="matrix(4.166678704 0 0 4.16666989556 850.97631 18.164370742)"/><path d="m0 0h23.021" fill="none" stroke="#174ea6" stroke-width=".12" transform="matrix(4.166678704 0 0 4.16666989556 967.842308 18.513356442)"/><path d="m-23.671 11.202h34.873c0 6.887-5.583 12.47-12.47 12.47h-9.933c-6.887 0-12.47-5.583-12.47-12.47" fill="#34a853" fill-rule="nonzero" transform="matrix(0 -4.16666989556 -4.166678704 0 763.309252 46.674508228)"/><path d="m361.787 153.91h15.804v34.873h-15.804z" fill="#a8dab5" transform="matrix(4.166678704 0 0 4.16666989556 -790.81245704 -641.290973202)"/><g fill="none" stroke-width=".12"><path d="m-2.251.008h2.251" stroke="#0d652d" transform="matrix(-4.166578364 -.02776480374 -.02776488072 4.16657018536 691.054418 50.615055332)"/><path d="m-15.48 0h15.48" stroke="#0d652d" transform="matrix(-4.166678704 0 0 4.16666989556 717.985674 50.7985221)"/><path d="m-4.622 0h4.622" stroke="#0d652d" transform="matrix(-4.166678704 0 0 4.16666989556 763.22898 94.507485372)"/><path d="m-3.514 0h3.514" stroke="#0d652d" transform="matrix(-4.166678704 0 0 4.16666989556 731.01984 94.507485372)"/><circle cx="-2.216" r="2.216" stroke="#174ea6" transform="matrix(0 -4.16666989556 -4.166678704 0 404.543582 76.505805864)"/><ellipse cx="2.217" rx="2.216" ry="2.217" stroke="#174ea6" transform="matrix(0 4.16666989556 4.166678704 0 436.853062 20.548441624)"/><path d="m-8.324-4.806h11.099" stroke="#174ea6" transform="matrix(-2.083198876 3.60852210902 3.60852742 2.0831953535 432.237422 77.830954422)"/><ellipse cx="-2.217" rx="2.216" ry="2.217" stroke="#174ea6" transform="matrix(0 -4.16666989556 -4.166678704 0 372.244136 20.548441624)"/><path d="m-2.775-4.806h11.099" stroke="#174ea6" transform="matrix(2.083198876 3.60852210902 3.60852742 -2.0831953535 399.978112 37.783349694)"/><path d="m-1.788.741h3.577v3.577h-3.577z" stroke="#0d652d" transform="matrix(-2.94628342 -2.94627687368 -2.94628342 2.94627687368 36.8988254 65.20166049)"/><path d="m-3.599-1.491h2.981v2.981h-2.981z" stroke="#0d652d" transform="matrix(-2.94628342 -2.94627687368 -2.94628342 2.94627687368 748.22815 88.297534116)"/><path d="m-3.599-1.491h2.981v2.981h-2.981z" stroke="#0d652d" transform="matrix(-2.94628342 -2.94627687368 -2.94628342 2.94627687368 703.17549 44.587573742)"/><circle cx="2.108" r="2.108" stroke="#174ea6" transform="matrix(0 4.16666989556 4.166678704 0 1015.794794 40.461565666)"/><circle cx="2.108" r="2.108" stroke="#174ea6" transform="matrix(0 4.16666989556 4.166678704 0 1015.794794 74.131706002)"/><circle cx="2.108" r="2.108" stroke="#174ea6" transform="matrix(0 4.16666989556 4.166678704 0 1015.794794 107.80284344)"/><path d="m0 17.437h4.122c4.815 0 8.718-3.903 8.718-8.718s-3.903-8.719-8.718-8.719" stroke="#e37400" transform="matrix(4.166678704 0 0 4.16666989556 859.20419 54.489793704)"/><path d="m0-8.982h-8.982v8.982" stroke="#a50e0e" transform="matrix(4.166678704 0 0 4.16666989556 589.570542 128.11381118)"/><path d="m0-12.862h-12.862v12.862" stroke="#a50e0e" transform="matrix(4.166678704 0 0 4.16666989556 605.735316 71.74264961)"/><path d="m-15.867 0h15.867" stroke="#e37400" transform="matrix(-4.166678704 0 0 4.16666989556 218.8935106 50.7985221)"/><path d="m-15.867 0h15.867" stroke="#e37400" transform="matrix(-4.166678704 0 0 4.16666989556 218.8935106 72.653003736)"/><path d="m-15.867 0h15.867" stroke="#e37400" transform="matrix(-4.166678704 0 0 4.16666989556 218.8935106 94.507485372)"/></g></svg>