<?xml version="1.0" encoding="UTF-8" standalone="no"?>
<!DOCTYPE svg PUBLIC "-//W3C//DTD SVG 1.1//EN" "http://www.w3.org/Graphics/SVG/1.1/DTD/svg11.dtd">
<svg width="100%" height="100%" viewBox="0 0 493 59" version="1.1" xmlns="http://www.w3.org/2000/svg" xmlns:xlink="http://www.w3.org/1999/xlink" xml:space="preserve" xmlns:serif="http://www.serif.com/" style="fill-rule:evenodd;clip-rule:evenodd;stroke-linejoin:round;stroke-miterlimit:2;">
    <g transform="matrix(1,0,0,1,-159.822,-315.285)">
        <g>
            <g transform="matrix(0.574416,0,0,0.574416,128.593,-77.2991)">
                <g transform="matrix(0.169499,-0.293581,0.334238,0.192973,-56.1383,834.227)">
                    <path d="M737,362.283C737,339.498 715.94,321 690,321C664.06,321 643,339.498 643,362.283L643,530.717C643,553.502 664.06,572 690,572C715.94,572 737,553.502 737,530.717L737,362.283Z" style="fill:rgb(235,235,235);"/>
                </g>
                <g transform="matrix(-0.169499,-0.293581,0.334238,-0.192973,66.1645,1006.75)">
                    <path d="M737,362.283C737,339.498 715.94,321 690,321C664.06,321 643,339.498 643,362.283L643,530.717C643,553.502 664.06,572 690,572C715.94,572 737,553.502 737,530.717L737,362.283Z" style="fill:rgb(234,67,53);"/>
                </g>
                <g transform="matrix(0.169499,-0.293581,0.334238,0.192973,-167.745,866.336)">
                    <path d="M737,362.283C737,339.498 715.94,321 690,321C664.06,321 643,339.498 643,362.283L643,530.717C643,553.502 664.06,572 690,572C715.94,572 737,553.502 737,530.717L737,362.283Z" style="fill:rgb(66,133,244);"/>
                </g>
                <g transform="matrix(-0.169499,-0.293581,0.334238,-0.192973,177.771,1039.05)">
                    <path d="M737,362.283C737,339.498 715.94,321 690,321C664.06,321 643,339.498 643,362.283L643,530.717C643,553.502 664.06,572 690,572C715.94,572 737,553.502 737,530.717L737,362.283Z" style="fill:rgb(251,188,4);"/>
                </g>
                <g transform="matrix(0.169499,-0.293581,0.334238,0.192973,-56.1383,834.227)">
                    <path d="M737,362.283C737,339.498 715.94,321 690,321C664.06,321 643,339.498 643,362.283L643,530.717C643,553.502 664.06,572 690,572C715.94,572 737,553.502 737,530.717L737,362.283Z" style="fill:rgb(15,157,88);"/>
                </g>
            </g>
            <g transform="matrix(0.753557,0,0,0.753557,-517.239,-2145.35)">
                <g transform="matrix(41.6667,0,0,41.6667,1072.49,3295.85)">
                    <path d="M0.082,-0.716L0.311,-0.716C0.385,-0.716 0.45,-0.701 0.505,-0.671C0.56,-0.641 0.603,-0.599 0.633,-0.545C0.662,-0.49 0.677,-0.428 0.677,-0.358C0.677,-0.288 0.662,-0.226 0.633,-0.172C0.603,-0.117 0.56,-0.075 0.505,-0.045C0.45,-0.015 0.385,0 0.311,0L0.082,0L0.082,-0.716ZM0.309,-0.107C0.389,-0.107 0.452,-0.129 0.497,-0.174C0.542,-0.218 0.564,-0.279 0.564,-0.358C0.564,-0.436 0.542,-0.497 0.497,-0.542C0.452,-0.587 0.389,-0.609 0.309,-0.609L0.194,-0.609L0.194,-0.107L0.309,-0.107Z" style="fill:rgb(103,108,114);fill-rule:nonzero;"/>
                </g>
                <g transform="matrix(41.6667,0,0,41.6667,1101.99,3295.85)">
                    <path d="M0.297,0.016C0.247,0.016 0.202,0.004 0.163,-0.019C0.123,-0.042 0.092,-0.075 0.07,-0.116C0.047,-0.157 0.036,-0.203 0.036,-0.254C0.036,-0.303 0.047,-0.348 0.069,-0.39C0.09,-0.431 0.12,-0.464 0.159,-0.489C0.198,-0.514 0.242,-0.526 0.291,-0.526C0.342,-0.526 0.387,-0.515 0.425,-0.492C0.462,-0.469 0.491,-0.438 0.511,-0.399C0.53,-0.36 0.54,-0.315 0.54,-0.266C0.54,-0.257 0.539,-0.245 0.537,-0.231L0.146,-0.231C0.15,-0.184 0.167,-0.147 0.197,-0.122C0.226,-0.096 0.261,-0.083 0.3,-0.083C0.331,-0.083 0.359,-0.09 0.382,-0.105C0.405,-0.119 0.423,-0.138 0.437,-0.163L0.53,-0.119C0.506,-0.077 0.475,-0.044 0.436,-0.02C0.397,0.004 0.351,0.016 0.297,0.016ZM0.428,-0.315C0.427,-0.333 0.421,-0.351 0.411,-0.369C0.401,-0.386 0.386,-0.401 0.366,-0.413C0.345,-0.425 0.32,-0.431 0.291,-0.431C0.256,-0.431 0.226,-0.421 0.202,-0.4C0.177,-0.379 0.16,-0.35 0.151,-0.315L0.428,-0.315Z" style="fill:rgb(103,108,114);fill-rule:nonzero;"/>
                </g>
                <g transform="matrix(41.6667,0,0,41.6667,1125.57,3295.85)">
                    <path d="M0.007,-0.51L0.13,-0.51L0.271,-0.142L0.275,-0.142L0.419,-0.51L0.539,-0.51L0.327,0L0.217,0L0.007,-0.51Z" style="fill:rgb(103,108,114);fill-rule:nonzero;"/>
                </g>
                <g transform="matrix(41.6667,0,0,41.6667,1147.69,3295.85)">
                    <path d="M0.297,0.016C0.247,0.016 0.202,0.004 0.163,-0.019C0.123,-0.042 0.092,-0.075 0.07,-0.116C0.047,-0.157 0.036,-0.203 0.036,-0.254C0.036,-0.303 0.047,-0.348 0.069,-0.39C0.09,-0.431 0.12,-0.464 0.159,-0.489C0.198,-0.514 0.242,-0.526 0.291,-0.526C0.342,-0.526 0.387,-0.515 0.425,-0.492C0.462,-0.469 0.491,-0.438 0.511,-0.399C0.53,-0.36 0.54,-0.315 0.54,-0.266C0.54,-0.257 0.539,-0.245 0.537,-0.231L0.146,-0.231C0.15,-0.184 0.167,-0.147 0.197,-0.122C0.226,-0.096 0.261,-0.083 0.3,-0.083C0.331,-0.083 0.359,-0.09 0.382,-0.105C0.405,-0.119 0.423,-0.138 0.437,-0.163L0.53,-0.119C0.506,-0.077 0.475,-0.044 0.436,-0.02C0.397,0.004 0.351,0.016 0.297,0.016ZM0.428,-0.315C0.427,-0.333 0.421,-0.351 0.411,-0.369C0.401,-0.386 0.386,-0.401 0.366,-0.413C0.345,-0.425 0.32,-0.431 0.291,-0.431C0.256,-0.431 0.226,-0.421 0.202,-0.4C0.177,-0.379 0.16,-0.35 0.151,-0.315L0.428,-0.315Z" style="fill:rgb(103,108,114);fill-rule:nonzero;"/>
                </g>
                <g transform="matrix(41.6667,0,0,41.6667,1171.69,3295.85)">
                    <rect x="0.064" y="-0.716" width="0.11" height="0.716" style="fill:rgb(103,108,114);fill-rule:nonzero;"/>
                </g>
                <g transform="matrix(41.6667,0,0,41.6667,1181.44,3295.85)">
                    <path d="M0.303,0.016C0.252,0.016 0.206,0.004 0.165,-0.02C0.124,-0.043 0.093,-0.076 0.07,-0.117C0.047,-0.158 0.036,-0.204 0.036,-0.255C0.036,-0.306 0.047,-0.352 0.07,-0.393C0.093,-0.434 0.124,-0.467 0.165,-0.491C0.206,-0.514 0.252,-0.526 0.303,-0.526C0.354,-0.526 0.4,-0.514 0.441,-0.49C0.482,-0.466 0.513,-0.433 0.536,-0.392C0.559,-0.351 0.57,-0.305 0.57,-0.255C0.57,-0.204 0.559,-0.158 0.536,-0.117C0.513,-0.076 0.482,-0.043 0.441,-0.02C0.4,0.004 0.354,0.016 0.303,0.016ZM0.303,-0.085C0.331,-0.085 0.357,-0.092 0.381,-0.106C0.405,-0.119 0.424,-0.139 0.439,-0.165C0.453,-0.19 0.46,-0.22 0.46,-0.255C0.46,-0.29 0.453,-0.32 0.439,-0.345C0.424,-0.37 0.405,-0.39 0.381,-0.404C0.357,-0.417 0.331,-0.424 0.303,-0.424C0.275,-0.424 0.249,-0.417 0.225,-0.404C0.201,-0.39 0.182,-0.37 0.168,-0.345C0.153,-0.32 0.146,-0.29 0.146,-0.255C0.146,-0.22 0.153,-0.19 0.168,-0.165C0.182,-0.139 0.201,-0.119 0.225,-0.106C0.249,-0.092 0.275,-0.085 0.303,-0.085Z" style="fill:rgb(103,108,114);fill-rule:nonzero;"/>
                </g>
                <g transform="matrix(41.6667,0,0,41.6667,1206.53,3295.85)">
                    <path d="M0.06,-0.51L0.165,-0.51L0.165,-0.443L0.17,-0.443C0.185,-0.466 0.206,-0.486 0.235,-0.502C0.264,-0.518 0.296,-0.526 0.332,-0.526C0.378,-0.526 0.42,-0.514 0.457,-0.491C0.494,-0.468 0.524,-0.436 0.546,-0.395C0.567,-0.354 0.578,-0.307 0.578,-0.255C0.578,-0.203 0.567,-0.157 0.546,-0.116C0.524,-0.075 0.494,-0.042 0.457,-0.019C0.42,0.004 0.378,0.016 0.332,0.016C0.296,0.016 0.264,0.008 0.235,-0.008C0.206,-0.024 0.185,-0.043 0.17,-0.066L0.165,-0.066L0.17,0.005L0.17,0.216L0.06,0.216L0.06,-0.51ZM0.316,-0.085C0.343,-0.085 0.368,-0.092 0.391,-0.106C0.414,-0.12 0.433,-0.14 0.447,-0.166C0.461,-0.192 0.468,-0.222 0.468,-0.255C0.468,-0.288 0.461,-0.318 0.447,-0.344C0.433,-0.369 0.414,-0.389 0.391,-0.403C0.368,-0.417 0.343,-0.424 0.316,-0.424C0.289,-0.424 0.265,-0.417 0.242,-0.403C0.219,-0.389 0.2,-0.369 0.186,-0.344C0.172,-0.318 0.165,-0.288 0.165,-0.255C0.165,-0.222 0.172,-0.192 0.186,-0.166C0.2,-0.14 0.219,-0.12 0.242,-0.106C0.265,-0.092 0.289,-0.085 0.316,-0.085Z" style="fill:rgb(103,108,114);fill-rule:nonzero;"/>
                </g>
                <g transform="matrix(41.6667,0,0,41.6667,1232.11,3295.85)">
                    <path d="M0.297,0.016C0.247,0.016 0.202,0.004 0.163,-0.019C0.123,-0.042 0.092,-0.075 0.07,-0.116C0.047,-0.157 0.036,-0.203 0.036,-0.254C0.036,-0.303 0.047,-0.348 0.069,-0.39C0.09,-0.431 0.12,-0.464 0.159,-0.489C0.198,-0.514 0.242,-0.526 0.291,-0.526C0.342,-0.526 0.387,-0.515 0.425,-0.492C0.462,-0.469 0.491,-0.438 0.511,-0.399C0.53,-0.36 0.54,-0.315 0.54,-0.266C0.54,-0.257 0.539,-0.245 0.537,-0.231L0.146,-0.231C0.15,-0.184 0.167,-0.147 0.197,-0.122C0.226,-0.096 0.261,-0.083 0.3,-0.083C0.331,-0.083 0.359,-0.09 0.382,-0.105C0.405,-0.119 0.423,-0.138 0.437,-0.163L0.53,-0.119C0.506,-0.077 0.475,-0.044 0.436,-0.02C0.397,0.004 0.351,0.016 0.297,0.016ZM0.428,-0.315C0.427,-0.333 0.421,-0.351 0.411,-0.369C0.401,-0.386 0.386,-0.401 0.366,-0.413C0.345,-0.425 0.32,-0.431 0.291,-0.431C0.256,-0.431 0.226,-0.421 0.202,-0.4C0.177,-0.379 0.16,-0.35 0.151,-0.315L0.428,-0.315Z" style="fill:rgb(103,108,114);fill-rule:nonzero;"/>
                </g>
                <g transform="matrix(41.6667,0,0,41.6667,1256.11,3295.85)">
                    <path d="M0.064,-0.51L0.169,-0.51L0.169,-0.435L0.174,-0.435C0.185,-0.461 0.205,-0.483 0.233,-0.5C0.261,-0.517 0.291,-0.525 0.322,-0.525C0.347,-0.525 0.367,-0.522 0.384,-0.515L0.384,-0.401C0.355,-0.412 0.328,-0.417 0.305,-0.417C0.28,-0.417 0.257,-0.41 0.238,-0.397C0.218,-0.384 0.202,-0.366 0.191,-0.344C0.18,-0.321 0.174,-0.297 0.174,-0.27L0.174,0L0.064,0L0.064,-0.51Z" style="fill:rgb(103,108,114);fill-rule:nonzero;"/>
                </g>
                <g transform="matrix(41.6667,0,0,41.6667,1281.44,3295.85)">
                    <path d="M0.289,0.016C0.23,0.016 0.176,-0.001 0.129,-0.036C0.082,-0.071 0.049,-0.119 0.031,-0.182L0.137,-0.225C0.148,-0.186 0.167,-0.154 0.194,-0.129C0.221,-0.103 0.253,-0.091 0.291,-0.091C0.326,-0.091 0.356,-0.1 0.381,-0.119C0.406,-0.137 0.418,-0.162 0.418,-0.194C0.418,-0.223 0.407,-0.248 0.386,-0.267C0.364,-0.286 0.326,-0.305 0.272,-0.324L0.227,-0.34C0.179,-0.357 0.139,-0.381 0.106,-0.412C0.073,-0.443 0.057,-0.485 0.057,-0.536C0.057,-0.571 0.067,-0.604 0.086,-0.634C0.105,-0.664 0.132,-0.688 0.167,-0.706C0.201,-0.723 0.24,-0.732 0.283,-0.732C0.346,-0.732 0.396,-0.717 0.433,-0.687C0.47,-0.656 0.495,-0.622 0.508,-0.584L0.407,-0.541C0.4,-0.564 0.386,-0.584 0.365,-0.601C0.344,-0.618 0.318,-0.627 0.285,-0.627C0.252,-0.627 0.225,-0.619 0.203,-0.602C0.18,-0.585 0.169,-0.564 0.169,-0.538C0.169,-0.513 0.179,-0.493 0.199,-0.477C0.219,-0.461 0.25,-0.446 0.293,-0.431L0.338,-0.416C0.399,-0.395 0.447,-0.367 0.481,-0.333C0.514,-0.298 0.531,-0.252 0.531,-0.195C0.531,-0.148 0.519,-0.109 0.495,-0.078C0.471,-0.046 0.441,-0.022 0.404,-0.007C0.367,0.008 0.328,0.016 0.289,0.016Z" style="fill:rgb(103,108,114);fill-rule:nonzero;"/>
                </g>
                <g transform="matrix(41.6667,0,0,41.6667,1304.44,3295.85)">
                    <path d="M0.273,0.008C0.25,0.008 0.229,0.004 0.209,-0.003C0.189,-0.01 0.173,-0.02 0.16,-0.032C0.131,-0.061 0.117,-0.1 0.117,-0.149L0.117,-0.413L0.028,-0.413L0.028,-0.51L0.117,-0.51L0.117,-0.654L0.227,-0.654L0.227,-0.51L0.351,-0.51L0.351,-0.413L0.227,-0.413L0.227,-0.173C0.227,-0.146 0.232,-0.126 0.243,-0.115C0.253,-0.102 0.27,-0.095 0.295,-0.095C0.306,-0.095 0.316,-0.096 0.325,-0.1C0.334,-0.102 0.343,-0.107 0.353,-0.114L0.353,-0.007C0.331,0.003 0.304,0.008 0.273,0.008Z" style="fill:rgb(103,108,114);fill-rule:nonzero;"/>
                </g>
                <g transform="matrix(41.6667,0,0,41.6667,1320.78,3295.85)">
                    <path d="M0.25,0.016C0.188,0.016 0.141,-0.003 0.109,-0.04C0.076,-0.077 0.06,-0.128 0.06,-0.194L0.06,-0.51L0.17,-0.51L0.17,-0.209C0.17,-0.168 0.18,-0.137 0.2,-0.116C0.219,-0.095 0.245,-0.085 0.277,-0.085C0.303,-0.085 0.326,-0.092 0.346,-0.106C0.366,-0.119 0.381,-0.137 0.392,-0.16C0.403,-0.183 0.408,-0.207 0.408,-0.233L0.408,-0.51L0.518,-0.51L0.518,0L0.414,0L0.414,-0.066L0.408,-0.066C0.394,-0.042 0.372,-0.022 0.343,-0.007C0.314,0.008 0.283,0.016 0.25,0.016Z" style="fill:rgb(103,108,114);fill-rule:nonzero;"/>
                </g>
                <g transform="matrix(41.6667,0,0,41.6667,1344.82,3295.85)">
                    <path d="M0.282,0.016C0.236,0.016 0.194,0.004 0.157,-0.019C0.12,-0.042 0.09,-0.075 0.069,-0.116C0.047,-0.157 0.036,-0.203 0.036,-0.255C0.036,-0.307 0.047,-0.354 0.069,-0.395C0.09,-0.436 0.12,-0.468 0.157,-0.491C0.194,-0.514 0.236,-0.526 0.282,-0.526C0.318,-0.526 0.35,-0.518 0.379,-0.502C0.408,-0.486 0.429,-0.466 0.444,-0.443L0.449,-0.443L0.444,-0.515L0.444,-0.716L0.554,-0.716L0.554,0L0.449,0L0.449,-0.066L0.444,-0.066C0.429,-0.043 0.408,-0.024 0.379,-0.008C0.35,0.008 0.318,0.016 0.282,0.016ZM0.298,-0.085C0.325,-0.085 0.349,-0.092 0.373,-0.106C0.396,-0.12 0.414,-0.14 0.428,-0.166C0.442,-0.192 0.449,-0.222 0.449,-0.255C0.449,-0.288 0.442,-0.318 0.428,-0.344C0.414,-0.369 0.396,-0.389 0.373,-0.403C0.349,-0.417 0.325,-0.424 0.298,-0.424C0.271,-0.424 0.246,-0.417 0.223,-0.403C0.2,-0.389 0.181,-0.369 0.167,-0.344C0.153,-0.318 0.146,-0.288 0.146,-0.255C0.146,-0.222 0.153,-0.192 0.167,-0.166C0.181,-0.14 0.2,-0.12 0.223,-0.106C0.246,-0.092 0.271,-0.085 0.298,-0.085Z" style="fill:rgb(103,108,114);fill-rule:nonzero;"/>
                </g>
                <g transform="matrix(41.6667,0,0,41.6667,1370.36,3295.85)">
                    <path d="M0.297,0.016C0.247,0.016 0.202,0.004 0.163,-0.019C0.123,-0.042 0.092,-0.075 0.07,-0.116C0.047,-0.157 0.036,-0.203 0.036,-0.254C0.036,-0.303 0.047,-0.348 0.069,-0.39C0.09,-0.431 0.12,-0.464 0.159,-0.489C0.198,-0.514 0.242,-0.526 0.291,-0.526C0.342,-0.526 0.387,-0.515 0.425,-0.492C0.462,-0.469 0.491,-0.438 0.511,-0.399C0.53,-0.36 0.54,-0.315 0.54,-0.266C0.54,-0.257 0.539,-0.245 0.537,-0.231L0.146,-0.231C0.15,-0.184 0.167,-0.147 0.197,-0.122C0.226,-0.096 0.261,-0.083 0.3,-0.083C0.331,-0.083 0.359,-0.09 0.382,-0.105C0.405,-0.119 0.423,-0.138 0.437,-0.163L0.53,-0.119C0.506,-0.077 0.475,-0.044 0.436,-0.02C0.397,0.004 0.351,0.016 0.297,0.016ZM0.428,-0.315C0.427,-0.333 0.421,-0.351 0.411,-0.369C0.401,-0.386 0.386,-0.401 0.366,-0.413C0.345,-0.425 0.32,-0.431 0.291,-0.431C0.256,-0.431 0.226,-0.421 0.202,-0.4C0.177,-0.379 0.16,-0.35 0.151,-0.315L0.428,-0.315Z" style="fill:rgb(103,108,114);fill-rule:nonzero;"/>
                </g>
                <g transform="matrix(41.6667,0,0,41.6667,1394.36,3295.85)">
                    <path d="M0.064,-0.51L0.169,-0.51L0.169,-0.443L0.174,-0.443C0.189,-0.467 0.211,-0.487 0.24,-0.503C0.269,-0.518 0.299,-0.526 0.332,-0.526C0.394,-0.526 0.441,-0.508 0.474,-0.472C0.506,-0.435 0.522,-0.386 0.522,-0.323L0.522,0L0.412,0L0.412,-0.308C0.412,-0.348 0.402,-0.377 0.383,-0.396C0.363,-0.415 0.336,-0.424 0.301,-0.424C0.276,-0.424 0.254,-0.417 0.235,-0.404C0.216,-0.39 0.201,-0.372 0.19,-0.349C0.179,-0.326 0.174,-0.302 0.174,-0.276L0.174,0L0.064,0L0.064,-0.51Z" style="fill:rgb(103,108,114);fill-rule:nonzero;"/>
                </g>
                <g transform="matrix(41.6667,0,0,41.6667,1417.57,3295.85)">
                    <path d="M0.273,0.008C0.25,0.008 0.229,0.004 0.209,-0.003C0.189,-0.01 0.173,-0.02 0.16,-0.032C0.131,-0.061 0.117,-0.1 0.117,-0.149L0.117,-0.413L0.028,-0.413L0.028,-0.51L0.117,-0.51L0.117,-0.654L0.227,-0.654L0.227,-0.51L0.351,-0.51L0.351,-0.413L0.227,-0.413L0.227,-0.173C0.227,-0.146 0.232,-0.126 0.243,-0.115C0.253,-0.102 0.27,-0.095 0.295,-0.095C0.306,-0.095 0.316,-0.096 0.325,-0.1C0.334,-0.102 0.343,-0.107 0.353,-0.114L0.353,-0.007C0.331,0.003 0.304,0.008 0.273,0.008Z" style="fill:rgb(103,108,114);fill-rule:nonzero;"/>
                </g>
                <g transform="matrix(41.6667,0,0,41.6667,1442.82,3295.85)">
                    <path d="M0.42,0.016C0.351,0.016 0.287,0 0.23,-0.033C0.173,-0.066 0.128,-0.111 0.095,-0.168C0.062,-0.225 0.046,-0.289 0.046,-0.358C0.046,-0.427 0.062,-0.491 0.095,-0.548C0.128,-0.605 0.173,-0.65 0.23,-0.683C0.287,-0.716 0.351,-0.732 0.42,-0.732C0.474,-0.732 0.523,-0.722 0.568,-0.702C0.612,-0.682 0.651,-0.653 0.685,-0.615L0.605,-0.538C0.58,-0.567 0.553,-0.589 0.523,-0.604C0.493,-0.618 0.459,-0.625 0.42,-0.625C0.372,-0.625 0.328,-0.614 0.289,-0.592C0.249,-0.57 0.217,-0.539 0.194,-0.499C0.171,-0.458 0.159,-0.411 0.159,-0.358C0.159,-0.305 0.171,-0.258 0.194,-0.218C0.217,-0.177 0.249,-0.146 0.289,-0.124C0.328,-0.102 0.372,-0.091 0.42,-0.091C0.5,-0.091 0.568,-0.124 0.624,-0.191L0.705,-0.113C0.67,-0.072 0.629,-0.041 0.58,-0.018C0.531,0.005 0.478,0.016 0.42,0.016Z" style="fill:rgb(103,108,114);fill-rule:nonzero;"/>
                </g>
                <g transform="matrix(41.6667,0,0,41.6667,1473.57,3295.85)">
                    <rect x="0.064" y="-0.716" width="0.11" height="0.716" style="fill:rgb(103,108,114);fill-rule:nonzero;"/>
                </g>
                <g transform="matrix(41.6667,0,0,41.6667,1483.53,3295.85)">
                    <path d="M0.25,0.016C0.188,0.016 0.141,-0.003 0.109,-0.04C0.076,-0.077 0.06,-0.128 0.06,-0.194L0.06,-0.51L0.17,-0.51L0.17,-0.209C0.17,-0.168 0.18,-0.137 0.2,-0.116C0.219,-0.095 0.245,-0.085 0.277,-0.085C0.303,-0.085 0.326,-0.092 0.346,-0.106C0.366,-0.119 0.381,-0.137 0.392,-0.16C0.403,-0.183 0.408,-0.207 0.408,-0.233L0.408,-0.51L0.518,-0.51L0.518,0L0.414,0L0.414,-0.066L0.408,-0.066C0.394,-0.042 0.372,-0.022 0.343,-0.007C0.314,0.008 0.283,0.016 0.25,0.016Z" style="fill:rgb(103,108,114);fill-rule:nonzero;"/>
                </g>
                <g transform="matrix(41.6667,0,0,41.6667,1507.78,3295.85)">
                    <path d="M0.336,0.016C0.3,0.016 0.268,0.008 0.239,-0.008C0.21,-0.024 0.189,-0.043 0.174,-0.066L0.169,-0.066L0.169,0L0.064,0L0.064,-0.716L0.174,-0.716L0.174,-0.515L0.169,-0.443L0.174,-0.443C0.189,-0.466 0.21,-0.486 0.239,-0.502C0.268,-0.518 0.3,-0.526 0.336,-0.526C0.382,-0.526 0.424,-0.514 0.461,-0.491C0.498,-0.468 0.528,-0.436 0.55,-0.395C0.571,-0.354 0.582,-0.307 0.582,-0.255C0.582,-0.203 0.571,-0.157 0.55,-0.116C0.528,-0.075 0.498,-0.042 0.461,-0.019C0.424,0.004 0.382,0.016 0.336,0.016ZM0.32,-0.085C0.347,-0.085 0.372,-0.092 0.395,-0.106C0.418,-0.12 0.437,-0.14 0.451,-0.166C0.465,-0.192 0.472,-0.222 0.472,-0.255C0.472,-0.288 0.465,-0.318 0.451,-0.344C0.437,-0.369 0.418,-0.389 0.395,-0.403C0.372,-0.417 0.347,-0.424 0.32,-0.424C0.293,-0.424 0.269,-0.417 0.246,-0.403C0.223,-0.389 0.204,-0.369 0.19,-0.344C0.176,-0.318 0.169,-0.288 0.169,-0.255C0.169,-0.222 0.176,-0.192 0.19,-0.166C0.204,-0.14 0.223,-0.12 0.246,-0.106C0.269,-0.092 0.293,-0.085 0.32,-0.085Z" style="fill:rgb(103,108,114);fill-rule:nonzero;"/>
                </g>
                <g transform="matrix(41.6667,0,0,41.6667,1533.32,3295.85)">
                    <path d="M0.25,0.016C0.191,0.016 0.143,0.003 0.106,-0.023C0.069,-0.048 0.042,-0.081 0.027,-0.121L0.125,-0.164C0.137,-0.137 0.154,-0.117 0.176,-0.103C0.197,-0.089 0.222,-0.082 0.25,-0.082C0.277,-0.082 0.3,-0.087 0.319,-0.097C0.338,-0.106 0.347,-0.121 0.347,-0.14C0.347,-0.159 0.339,-0.173 0.323,-0.184C0.307,-0.195 0.282,-0.204 0.249,-0.212L0.188,-0.227C0.147,-0.237 0.114,-0.255 0.087,-0.28C0.06,-0.305 0.047,-0.337 0.047,-0.376C0.047,-0.406 0.056,-0.432 0.074,-0.455C0.091,-0.478 0.115,-0.495 0.145,-0.508C0.175,-0.52 0.208,-0.526 0.243,-0.526C0.29,-0.526 0.332,-0.517 0.368,-0.498C0.404,-0.478 0.43,-0.451 0.446,-0.415L0.35,-0.373C0.331,-0.412 0.295,-0.432 0.244,-0.432C0.219,-0.432 0.199,-0.427 0.182,-0.417C0.165,-0.407 0.157,-0.394 0.157,-0.378C0.157,-0.363 0.163,-0.35 0.176,-0.341C0.189,-0.331 0.207,-0.323 0.232,-0.316L0.307,-0.297C0.357,-0.284 0.395,-0.265 0.421,-0.24C0.446,-0.214 0.459,-0.182 0.459,-0.145C0.459,-0.113 0.45,-0.085 0.432,-0.061C0.413,-0.036 0.388,-0.017 0.356,-0.004C0.324,0.009 0.289,0.016 0.25,0.016Z" style="fill:rgb(103,108,114);fill-rule:nonzero;"/>
                </g>
                <g transform="matrix(33.9479,0,0,33.9479,1072.49,3334.65)">
                    <path d="M0.416,0.016C0.347,0.016 0.284,0 0.227,-0.033C0.17,-0.066 0.126,-0.111 0.094,-0.168C0.061,-0.225 0.045,-0.288 0.045,-0.358C0.045,-0.428 0.061,-0.492 0.094,-0.549C0.126,-0.606 0.17,-0.65 0.227,-0.683C0.284,-0.716 0.347,-0.732 0.416,-0.732C0.469,-0.732 0.518,-0.722 0.563,-0.702C0.607,-0.681 0.645,-0.652 0.678,-0.615L0.617,-0.556C0.59,-0.589 0.56,-0.613 0.528,-0.628C0.495,-0.643 0.458,-0.651 0.416,-0.651C0.364,-0.651 0.316,-0.639 0.273,-0.615C0.23,-0.59 0.195,-0.556 0.17,-0.512C0.144,-0.467 0.131,-0.416 0.131,-0.358C0.131,-0.3 0.144,-0.249 0.17,-0.205C0.195,-0.16 0.23,-0.126 0.273,-0.102C0.316,-0.077 0.364,-0.065 0.416,-0.065C0.503,-0.065 0.576,-0.101 0.637,-0.172L0.699,-0.112C0.666,-0.073 0.625,-0.042 0.576,-0.019C0.527,0.005 0.474,0.016 0.416,0.016Z" style="fill:rgb(103,108,114);fill-rule:nonzero;"/>
                </g>
                <g transform="matrix(33.9479,0,0,33.9479,1097.3,3334.65)">
                    <path d="M0.063,-0.716L0.148,-0.716L0.148,-0.505L0.144,-0.435L0.148,-0.435C0.162,-0.461 0.184,-0.483 0.215,-0.5C0.245,-0.517 0.278,-0.526 0.314,-0.526C0.376,-0.526 0.423,-0.508 0.456,-0.472C0.489,-0.435 0.505,-0.387 0.505,-0.327L0.505,0L0.42,0L0.42,-0.314C0.42,-0.36 0.408,-0.394 0.385,-0.416C0.362,-0.438 0.331,-0.449 0.294,-0.449C0.267,-0.449 0.243,-0.441 0.221,-0.425C0.198,-0.409 0.181,-0.388 0.168,-0.363C0.155,-0.338 0.148,-0.311 0.148,-0.284L0.148,0L0.063,0L0.063,-0.716Z" style="fill:rgb(103,108,114);fill-rule:nonzero;"/>
                </g>
                <g transform="matrix(33.9479,0,0,33.9479,1116.28,3334.65)">
                    <path d="M0.226,0.016C0.189,0.016 0.155,0.009 0.126,-0.006C0.097,-0.021 0.074,-0.041 0.058,-0.067C0.042,-0.092 0.034,-0.121 0.034,-0.154C0.034,-0.208 0.054,-0.25 0.095,-0.281C0.136,-0.311 0.187,-0.326 0.249,-0.326C0.28,-0.326 0.308,-0.323 0.335,-0.316C0.361,-0.309 0.381,-0.302 0.395,-0.293L0.395,-0.324C0.395,-0.362 0.382,-0.393 0.355,-0.416C0.328,-0.439 0.295,-0.45 0.254,-0.45C0.225,-0.45 0.199,-0.444 0.175,-0.432C0.151,-0.419 0.132,-0.402 0.118,-0.38L0.054,-0.428C0.074,-0.459 0.101,-0.483 0.137,-0.5C0.171,-0.517 0.21,-0.526 0.253,-0.526C0.322,-0.526 0.377,-0.508 0.417,-0.472C0.456,-0.435 0.476,-0.386 0.476,-0.323L0.476,0L0.395,0L0.395,-0.073L0.391,-0.073C0.376,-0.048 0.354,-0.027 0.325,-0.01C0.296,0.007 0.263,0.016 0.226,0.016ZM0.234,-0.059C0.263,-0.059 0.289,-0.066 0.314,-0.081C0.339,-0.096 0.358,-0.115 0.373,-0.14C0.388,-0.165 0.395,-0.192 0.395,-0.221C0.379,-0.232 0.359,-0.24 0.336,-0.247C0.313,-0.254 0.288,-0.257 0.262,-0.257C0.215,-0.257 0.18,-0.247 0.157,-0.228C0.133,-0.209 0.121,-0.184 0.121,-0.153C0.121,-0.125 0.132,-0.102 0.153,-0.085C0.174,-0.068 0.201,-0.059 0.234,-0.059Z" style="fill:rgb(103,108,114);fill-rule:nonzero;"/>
                </g>
                <g transform="matrix(33.9479,0,0,33.9479,1134.31,3334.65)">
                    <path d="M0.059,-0.51L0.14,-0.51L0.14,-0.434L0.144,-0.434C0.159,-0.46 0.183,-0.482 0.214,-0.5C0.245,-0.517 0.279,-0.526 0.318,-0.526C0.363,-0.526 0.405,-0.514 0.442,-0.491C0.479,-0.468 0.509,-0.435 0.53,-0.394C0.551,-0.353 0.562,-0.306 0.562,-0.255C0.562,-0.203 0.551,-0.157 0.53,-0.116C0.509,-0.075 0.479,-0.042 0.442,-0.019C0.405,0.004 0.363,0.016 0.318,0.016C0.279,0.016 0.245,0.007 0.214,-0.011C0.183,-0.028 0.159,-0.05 0.144,-0.075L0.14,-0.075L0.144,-0.005L0.144,0.216L0.059,0.216L0.059,-0.51ZM0.308,-0.061C0.337,-0.061 0.365,-0.069 0.391,-0.085C0.417,-0.101 0.438,-0.124 0.454,-0.154C0.469,-0.183 0.477,-0.217 0.477,-0.255C0.477,-0.293 0.469,-0.327 0.454,-0.357C0.438,-0.386 0.417,-0.409 0.391,-0.425C0.365,-0.441 0.337,-0.449 0.308,-0.449C0.279,-0.449 0.251,-0.441 0.225,-0.425C0.199,-0.409 0.178,-0.386 0.163,-0.357C0.148,-0.328 0.14,-0.294 0.14,-0.255C0.14,-0.216 0.148,-0.182 0.163,-0.153C0.178,-0.124 0.199,-0.101 0.225,-0.085C0.251,-0.069 0.279,-0.061 0.308,-0.061Z" style="fill:rgb(103,108,114);fill-rule:nonzero;"/>
                </g>
                <g transform="matrix(33.9479,0,0,33.9479,1153.93,3334.65)">
                    <path d="M0.259,0.008C0.238,0.008 0.219,0.005 0.202,-0.002C0.184,-0.009 0.169,-0.018 0.157,-0.029C0.144,-0.042 0.134,-0.056 0.127,-0.073C0.12,-0.09 0.117,-0.11 0.117,-0.134L0.117,-0.433L0.028,-0.433L0.028,-0.51L0.117,-0.51L0.117,-0.654L0.202,-0.654L0.202,-0.51L0.326,-0.51L0.326,-0.433L0.202,-0.433L0.202,-0.155C0.202,-0.127 0.207,-0.106 0.218,-0.093C0.231,-0.078 0.249,-0.071 0.273,-0.071C0.292,-0.071 0.311,-0.077 0.329,-0.088L0.329,-0.005C0.319,0 0.309,0.003 0.299,0.005C0.288,0.007 0.275,0.008 0.259,0.008Z" style="fill:rgb(103,108,114);fill-rule:nonzero;"/>
                </g>
                <g transform="matrix(33.9479,0,0,33.9479,1165.61,3334.65)">
                    <path d="M0.29,0.016C0.241,0.016 0.198,0.004 0.159,-0.019C0.12,-0.042 0.09,-0.075 0.069,-0.116C0.047,-0.157 0.036,-0.203 0.036,-0.254C0.036,-0.303 0.046,-0.349 0.067,-0.39C0.087,-0.431 0.116,-0.464 0.153,-0.489C0.19,-0.514 0.234,-0.526 0.283,-0.526C0.333,-0.526 0.376,-0.515 0.413,-0.493C0.45,-0.47 0.478,-0.439 0.498,-0.4C0.517,-0.361 0.527,-0.316 0.527,-0.265C0.527,-0.255 0.526,-0.246 0.524,-0.239L0.121,-0.239C0.123,-0.2 0.132,-0.168 0.149,-0.141C0.166,-0.114 0.187,-0.094 0.213,-0.081C0.238,-0.068 0.265,-0.061 0.293,-0.061C0.358,-0.061 0.409,-0.092 0.444,-0.153L0.516,-0.118C0.494,-0.077 0.464,-0.044 0.427,-0.02C0.389,0.004 0.343,0.016 0.29,0.016ZM0.437,-0.309C0.436,-0.33 0.43,-0.352 0.419,-0.373C0.408,-0.394 0.392,-0.412 0.369,-0.427C0.345,-0.442 0.317,-0.449 0.282,-0.449C0.242,-0.449 0.208,-0.436 0.181,-0.411C0.153,-0.385 0.135,-0.351 0.126,-0.309L0.437,-0.309Z" style="fill:rgb(103,108,114);fill-rule:nonzero;"/>
                </g>
                <g transform="matrix(33.9479,0,0,33.9479,1184.72,3334.65)">
                    <path d="M0.063,-0.51L0.144,-0.51L0.144,-0.428L0.148,-0.428C0.158,-0.456 0.177,-0.479 0.206,-0.498C0.235,-0.516 0.265,-0.525 0.296,-0.525C0.319,-0.525 0.339,-0.522 0.356,-0.515L0.356,-0.423C0.335,-0.434 0.311,-0.439 0.284,-0.439C0.259,-0.439 0.237,-0.432 0.216,-0.418C0.195,-0.404 0.179,-0.385 0.167,-0.362C0.154,-0.338 0.148,-0.312 0.148,-0.285L0.148,0L0.063,0L0.063,-0.51Z" style="fill:rgb(103,108,114);fill-rule:nonzero;"/>
                </g>
                <g transform="matrix(33.9479,0,0,33.9479,1203.97,3334.65)">
                    <path d="M0.257,-0.331L0.015,-0.716L0.114,-0.716L0.297,-0.416L0.301,-0.416L0.481,-0.716L0.58,-0.716L0.342,-0.331L0.342,0L0.257,0L0.257,-0.331Z" style="fill:rgb(103,108,114);fill-rule:nonzero;"/>
                </g>
                <g transform="matrix(33.9479,0,0,33.9479,1220.77,3334.65)">
                    <path d="M0.298,0.016C0.248,0.016 0.203,0.004 0.163,-0.02C0.123,-0.044 0.092,-0.077 0.07,-0.118C0.047,-0.159 0.036,-0.205 0.036,-0.255C0.036,-0.305 0.047,-0.351 0.07,-0.392C0.092,-0.433 0.123,-0.466 0.163,-0.49C0.203,-0.514 0.248,-0.526 0.298,-0.526C0.348,-0.526 0.393,-0.514 0.433,-0.49C0.473,-0.466 0.504,-0.433 0.527,-0.392C0.549,-0.351 0.56,-0.305 0.56,-0.255C0.56,-0.205 0.549,-0.159 0.527,-0.118C0.504,-0.077 0.473,-0.044 0.433,-0.02C0.393,0.004 0.348,0.016 0.298,0.016ZM0.298,-0.061C0.329,-0.061 0.359,-0.069 0.386,-0.085C0.413,-0.1 0.434,-0.123 0.451,-0.152C0.467,-0.181 0.475,-0.216 0.475,-0.255C0.475,-0.294 0.467,-0.329 0.451,-0.358C0.434,-0.387 0.413,-0.41 0.386,-0.426C0.359,-0.441 0.329,-0.449 0.298,-0.449C0.267,-0.449 0.237,-0.441 0.21,-0.426C0.183,-0.41 0.161,-0.387 0.145,-0.358C0.128,-0.329 0.12,-0.294 0.12,-0.255C0.12,-0.216 0.128,-0.181 0.145,-0.152C0.161,-0.123 0.183,-0.1 0.21,-0.085C0.237,-0.069 0.267,-0.061 0.298,-0.061Z" style="fill:rgb(103,108,114);fill-rule:nonzero;"/>
                </g>
                <g transform="matrix(33.9479,0,0,33.9479,1241,3334.65)">
                    <path d="M0.287,0.232C0.227,0.232 0.178,0.218 0.139,0.19C0.099,0.162 0.073,0.128 0.06,0.089L0.137,0.056C0.148,0.085 0.167,0.109 0.194,0.128C0.22,0.146 0.251,0.155 0.287,0.155C0.34,0.155 0.381,0.14 0.41,0.109C0.439,0.078 0.453,0.035 0.453,-0.021L0.453,-0.078L0.449,-0.078C0.432,-0.052 0.409,-0.031 0.379,-0.015C0.348,0.002 0.314,0.01 0.275,0.01C0.231,0.01 0.191,-0.001 0.155,-0.024C0.118,-0.047 0.089,-0.078 0.068,-0.119C0.047,-0.16 0.036,-0.206 0.036,-0.258C0.036,-0.309 0.047,-0.356 0.068,-0.397C0.089,-0.438 0.118,-0.469 0.155,-0.492C0.191,-0.515 0.231,-0.526 0.275,-0.526C0.314,-0.526 0.348,-0.518 0.379,-0.502C0.409,-0.485 0.432,-0.464 0.449,-0.437L0.453,-0.437L0.453,-0.51L0.534,-0.51L0.534,-0.02C0.534,0.062 0.511,0.125 0.466,0.168C0.421,0.211 0.361,0.232 0.287,0.232ZM0.287,-0.067C0.318,-0.067 0.345,-0.075 0.371,-0.09C0.396,-0.105 0.416,-0.127 0.431,-0.156C0.446,-0.185 0.453,-0.219 0.453,-0.258C0.453,-0.298 0.446,-0.332 0.431,-0.361C0.416,-0.39 0.396,-0.412 0.371,-0.427C0.345,-0.442 0.318,-0.449 0.287,-0.449C0.256,-0.449 0.228,-0.441 0.203,-0.426C0.178,-0.411 0.158,-0.389 0.143,-0.36C0.128,-0.331 0.12,-0.297 0.12,-0.258C0.12,-0.219 0.128,-0.185 0.143,-0.156C0.158,-0.127 0.178,-0.105 0.203,-0.09C0.228,-0.075 0.256,-0.067 0.287,-0.067Z" style="fill:rgb(103,108,114);fill-rule:nonzero;"/>
                </g>
                <g transform="matrix(33.9479,0,0,33.9479,1261.27,3334.65)">
                    <path d="M0.219,-0.032L0.008,-0.51L0.1,-0.51L0.26,-0.131L0.262,-0.131L0.416,-0.51L0.508,-0.51L0.193,0.216L0.105,0.216L0.219,-0.032Z" style="fill:rgb(103,108,114);fill-rule:nonzero;"/>
                </g>
                <g transform="matrix(33.9479,0,0,33.9479,1277.94,3334.65)">
                    <path d="M0.226,0.016C0.189,0.016 0.155,0.009 0.126,-0.006C0.097,-0.021 0.074,-0.041 0.058,-0.067C0.042,-0.092 0.034,-0.121 0.034,-0.154C0.034,-0.208 0.054,-0.25 0.095,-0.281C0.136,-0.311 0.187,-0.326 0.249,-0.326C0.28,-0.326 0.308,-0.323 0.335,-0.316C0.361,-0.309 0.381,-0.302 0.395,-0.293L0.395,-0.324C0.395,-0.362 0.382,-0.393 0.355,-0.416C0.328,-0.439 0.295,-0.45 0.254,-0.45C0.225,-0.45 0.199,-0.444 0.175,-0.432C0.151,-0.419 0.132,-0.402 0.118,-0.38L0.054,-0.428C0.074,-0.459 0.101,-0.483 0.137,-0.5C0.171,-0.517 0.21,-0.526 0.253,-0.526C0.322,-0.526 0.377,-0.508 0.417,-0.472C0.456,-0.435 0.476,-0.386 0.476,-0.323L0.476,0L0.395,0L0.395,-0.073L0.391,-0.073C0.376,-0.048 0.354,-0.027 0.325,-0.01C0.296,0.007 0.263,0.016 0.226,0.016ZM0.234,-0.059C0.263,-0.059 0.289,-0.066 0.314,-0.081C0.339,-0.096 0.358,-0.115 0.373,-0.14C0.388,-0.165 0.395,-0.192 0.395,-0.221C0.379,-0.232 0.359,-0.24 0.336,-0.247C0.313,-0.254 0.288,-0.257 0.262,-0.257C0.215,-0.257 0.18,-0.247 0.157,-0.228C0.133,-0.209 0.121,-0.184 0.121,-0.153C0.121,-0.125 0.132,-0.102 0.153,-0.085C0.174,-0.068 0.201,-0.059 0.234,-0.059Z" style="fill:rgb(103,108,114);fill-rule:nonzero;"/>
                </g>
                <g transform="matrix(33.9479,0,0,33.9479,1295.97,3334.65)">
                    <path d="M0.063,-0.716L0.148,-0.716L0.148,-0.266L0.388,-0.51L0.496,-0.51L0.496,-0.506L0.296,-0.304L0.501,-0.004L0.501,0L0.4,0L0.236,-0.245L0.148,-0.157L0.148,0L0.063,0L0.063,-0.716Z" style="fill:rgb(103,108,114);fill-rule:nonzero;"/>
                </g>
                <g transform="matrix(33.9479,0,0,33.9479,1312.77,3334.65)">
                    <path d="M0.226,0.016C0.189,0.016 0.155,0.009 0.126,-0.006C0.097,-0.021 0.074,-0.041 0.058,-0.067C0.042,-0.092 0.034,-0.121 0.034,-0.154C0.034,-0.208 0.054,-0.25 0.095,-0.281C0.136,-0.311 0.187,-0.326 0.249,-0.326C0.28,-0.326 0.308,-0.323 0.335,-0.316C0.361,-0.309 0.381,-0.302 0.395,-0.293L0.395,-0.324C0.395,-0.362 0.382,-0.393 0.355,-0.416C0.328,-0.439 0.295,-0.45 0.254,-0.45C0.225,-0.45 0.199,-0.444 0.175,-0.432C0.151,-0.419 0.132,-0.402 0.118,-0.38L0.054,-0.428C0.074,-0.459 0.101,-0.483 0.137,-0.5C0.171,-0.517 0.21,-0.526 0.253,-0.526C0.322,-0.526 0.377,-0.508 0.417,-0.472C0.456,-0.435 0.476,-0.386 0.476,-0.323L0.476,0L0.395,0L0.395,-0.073L0.391,-0.073C0.376,-0.048 0.354,-0.027 0.325,-0.01C0.296,0.007 0.263,0.016 0.226,0.016ZM0.234,-0.059C0.263,-0.059 0.289,-0.066 0.314,-0.081C0.339,-0.096 0.358,-0.115 0.373,-0.14C0.388,-0.165 0.395,-0.192 0.395,-0.221C0.379,-0.232 0.359,-0.24 0.336,-0.247C0.313,-0.254 0.288,-0.257 0.262,-0.257C0.215,-0.257 0.18,-0.247 0.157,-0.228C0.133,-0.209 0.121,-0.184 0.121,-0.153C0.121,-0.125 0.132,-0.102 0.153,-0.085C0.174,-0.068 0.201,-0.059 0.234,-0.059Z" style="fill:rgb(103,108,114);fill-rule:nonzero;"/>
                </g>
                <g transform="matrix(33.9479,0,0,33.9479,1330.8,3334.65)">
                    <path d="M0.063,-0.51L0.144,-0.51L0.144,-0.429L0.148,-0.429C0.16,-0.459 0.18,-0.482 0.209,-0.499C0.238,-0.516 0.269,-0.524 0.303,-0.524C0.318,-0.524 0.33,-0.523 0.34,-0.521L0.34,-0.434C0.329,-0.437 0.313,-0.438 0.294,-0.438C0.251,-0.438 0.216,-0.424 0.189,-0.395C0.162,-0.366 0.148,-0.329 0.148,-0.283L0.148,0L0.063,0L0.063,-0.51ZM0.638,0.008C0.617,0.008 0.598,0.005 0.581,-0.002C0.563,-0.009 0.548,-0.018 0.536,-0.029C0.523,-0.042 0.513,-0.056 0.506,-0.073C0.499,-0.09 0.496,-0.11 0.496,-0.134L0.496,-0.433L0.407,-0.433L0.407,-0.51L0.496,-0.51L0.496,-0.654L0.581,-0.654L0.581,-0.51L0.705,-0.51L0.705,-0.433L0.581,-0.433L0.581,-0.155C0.581,-0.127 0.586,-0.106 0.597,-0.093C0.61,-0.078 0.628,-0.071 0.652,-0.071C0.671,-0.071 0.69,-0.077 0.708,-0.088L0.708,-0.005C0.698,0 0.688,0.003 0.678,0.005C0.667,0.007 0.654,0.008 0.638,0.008Z" style="fill:rgb(103,108,114);fill-rule:nonzero;"/>
                </g>
                <g transform="matrix(33.9479,0,0,33.9479,1355.75,3334.65)">
                    <path d="M0.226,0.016C0.189,0.016 0.155,0.009 0.126,-0.006C0.097,-0.021 0.074,-0.041 0.058,-0.067C0.042,-0.092 0.034,-0.121 0.034,-0.154C0.034,-0.208 0.054,-0.25 0.095,-0.281C0.136,-0.311 0.187,-0.326 0.249,-0.326C0.28,-0.326 0.308,-0.323 0.335,-0.316C0.361,-0.309 0.381,-0.302 0.395,-0.293L0.395,-0.324C0.395,-0.362 0.382,-0.393 0.355,-0.416C0.328,-0.439 0.295,-0.45 0.254,-0.45C0.225,-0.45 0.199,-0.444 0.175,-0.432C0.151,-0.419 0.132,-0.402 0.118,-0.38L0.054,-0.428C0.074,-0.459 0.101,-0.483 0.137,-0.5C0.171,-0.517 0.21,-0.526 0.253,-0.526C0.322,-0.526 0.377,-0.508 0.417,-0.472C0.456,-0.435 0.476,-0.386 0.476,-0.323L0.476,0L0.395,0L0.395,-0.073L0.391,-0.073C0.376,-0.048 0.354,-0.027 0.325,-0.01C0.296,0.007 0.263,0.016 0.226,0.016ZM0.234,-0.059C0.263,-0.059 0.289,-0.066 0.314,-0.081C0.339,-0.096 0.358,-0.115 0.373,-0.14C0.388,-0.165 0.395,-0.192 0.395,-0.221C0.379,-0.232 0.359,-0.24 0.336,-0.247C0.313,-0.254 0.288,-0.257 0.262,-0.257C0.215,-0.257 0.18,-0.247 0.157,-0.228C0.133,-0.209 0.121,-0.184 0.121,-0.153C0.121,-0.125 0.132,-0.102 0.153,-0.085C0.174,-0.068 0.201,-0.059 0.234,-0.059Z" style="fill:rgb(103,108,114);fill-rule:nonzero;"/>
                </g>
            </g>
        </g>
    </g>
</svg>
