<?xml version="1.0" encoding="UTF-8" standalone="no"?>
<!DOCTYPE svg PUBLIC "-//W3C//DTD SVG 1.1//EN" "http://www.w3.org/Graphics/SVG/1.1/DTD/svg11.dtd">
<svg width="100%" height="100%" viewBox="0 0 2250 1003" version="1.1" xmlns="http://www.w3.org/2000/svg" xmlns:xlink="http://www.w3.org/1999/xlink" xml:space="preserve" xmlns:serif="http://www.serif.com/" style="fill-rule:evenodd;clip-rule:evenodd;stroke-linejoin:round;stroke-miterlimit:2;">
    <g transform="matrix(1,0,0,1,-671.436,-738.689)">
        <g transform="matrix(6.10782,0,0,6.10782,-3929.36,172.459)">
            <g transform="matrix(0.633635,0,0,0.633635,837.602,218.315)">
                <path d="M0,-142.709C-0.349,-143.794 -0.897,-144.812 -2.395,-144.82C-3.854,-144.828 -4.699,-144.069 -4.728,-142.622C-4.759,-141.064 -3.889,-140.131 -2.331,-140.169C-0.908,-140.203 -0.232,-141.19 0,-142.709M28.954,-123.603C28.937,-125.084 28.119,-125.919 26.752,-126.047C25.333,-126.181 24.375,-125.356 24.267,-123.966C24.149,-122.456 24.98,-121.396 26.553,-121.382C27.918,-121.37 28.79,-122.187 28.954,-123.603M-3.162,-25.483C-1.788,-25.635 -0.962,-26.413 -0.985,-27.844C-1.008,-29.241 -1.743,-30.13 -3.23,-30.14C-4.853,-30.151 -5.666,-29.182 -5.611,-27.677C-5.561,-26.278 -4.646,-25.523 -3.162,-25.483M-79.918,-110.984C-80.028,-112.314 -80.724,-113.323 -82.103,-113.42C-83.614,-113.526 -84.607,-112.653 -84.627,-111.076C-84.646,-109.642 -83.77,-108.802 -82.369,-108.757C-80.961,-108.711 -80.143,-109.534 -79.918,-110.984M-2.97,-57.672C-1.763,-57.882 -0.892,-58.598 -0.97,-60.07C-1.045,-61.485 -1.851,-62.365 -3.291,-62.33C-4.848,-62.293 -5.723,-61.338 -5.618,-59.795C-5.52,-58.371 -4.56,-57.691 -2.97,-57.672M-43.045,-106.049C-43.115,-107.464 -43.758,-108.351 -45.242,-108.436C-46.698,-108.52 -47.656,-107.759 -47.752,-106.376C-47.856,-104.887 -47.033,-103.845 -45.429,-103.815C-43.989,-103.788 -43.239,-104.658 -43.045,-106.049M-60.542,-69.916C-59.151,-70.146 -58.27,-70.858 -58.247,-72.317C-58.223,-73.784 -59.075,-74.695 -60.457,-74.705C-61.928,-74.715 -62.966,-73.876 -62.9,-72.24C-62.841,-70.778 -61.855,-70.145 -60.542,-69.916M-76.357,-132.61C-74.265,-132.564 -73.35,-133.386 -73.265,-134.735C-73.171,-136.245 -74.098,-137.222 -75.663,-137.237C-77.121,-137.251 -77.922,-136.305 -77.948,-134.926C-77.974,-133.541 -77.223,-132.651 -76.357,-132.61M-3.248,5.453C-1.887,5.295 -0.974,4.558 -0.938,3.135C-0.903,1.737 -1.688,0.738 -3.114,0.702C-4.617,0.665 -5.673,1.551 -5.632,3.108C-5.597,4.467 -4.7,5.306 -3.248,5.453M-79.939,-36.052C-80,-37.525 -80.848,-38.339 -82.241,-38.376C-83.632,-38.413 -84.573,-37.668 -84.634,-36.178C-84.701,-34.557 -83.729,-33.657 -82.244,-33.669C-80.88,-33.68 -80.06,-34.625 -79.939,-36.052M33.556,-43.321C34.878,-43.455 35.802,-44.137 35.893,-45.577C35.995,-47.197 35.049,-48.046 33.519,-48.067C32.06,-48.087 31.273,-47.105 31.234,-45.737C31.194,-44.31 32.114,-43.554 33.556,-43.321M-60.47,-16.707C-61.811,-16.553 -62.795,-15.945 -62.878,-14.473C-62.969,-12.867 -62.053,-11.96 -60.526,-11.95C-59.133,-11.941 -58.278,-12.775 -58.261,-14.26C-58.244,-15.736 -59.077,-16.466 -60.47,-16.707M-4.288,-110.921C-5.749,-110.776 -6.683,-109.989 -6.657,-108.582C-6.63,-107.074 -5.672,-106.096 -4.119,-106.179C-2.695,-106.255 -1.904,-107.313 -1.932,-108.653C-1.962,-110.054 -2.941,-110.792 -4.288,-110.921M38.466,-83.976C38.32,-85.558 37.444,-86.498 35.945,-86.498C34.544,-86.498 33.66,-85.498 33.62,-84.147C33.579,-82.8 34.349,-81.799 35.808,-81.7C37.4,-81.593 38.171,-82.56 38.466,-83.976M-59.737,-170.096C-61.143,-169.977 -62.063,-169.19 -62.141,-167.813C-62.22,-166.434 -61.447,-165.474 -59.981,-165.366C-58.366,-165.247 -57.419,-166.179 -57.415,-167.684C-57.411,-169.022 -58.303,-169.908 -59.737,-170.096M106.892,34.187C109.945,34.977 111.628,33.295 112.977,30.853C113.659,29.618 114.532,28.489 115.232,27.263C118.496,21.547 118.48,21.544 114.465,16.312C113.838,15.495 113.371,14.529 112.648,13.816C111.208,12.395 111.03,10.897 111.476,8.938C112.617,3.929 112.809,-1.122 111.451,-6.174C110.573,-9.436 110.942,-12.379 113.684,-14.874C115.187,-16.243 116.209,-18.137 117.466,-19.779C118.328,-20.906 117.823,-21.948 117.252,-22.937C115.656,-25.697 113.941,-28.392 112.408,-31.187C111.183,-33.419 109.608,-34.047 107.072,-33.465C104.709,-32.922 102.138,-33.292 99.772,-32.759C97.135,-32.165 95.215,-33.099 93.326,-34.625C91.786,-35.868 90.18,-36.943 88.274,-37.646C82.42,-39.803 76.961,-42.396 75.523,-49.445C74.413,-54.882 70.552,-56.154 65.614,-55.508C65.428,-55.483 65.236,-55.503 65.047,-55.502C57.326,-55.466 57.2,-55.485 54.545,-48.158C52.751,-43.211 50.317,-39.06 44.884,-37.413C43.759,-37.072 42.868,-36.021 41.764,-35.533C39.35,-34.468 37.733,-31.614 34.519,-32.325C31.924,-32.898 29.042,-32.293 26.674,-33.144C20.391,-35.399 18.001,-31.541 15.551,-27.103C12.25,-21.121 12.179,-21.162 16.32,-15.683C16.775,-15.081 17.136,-14.395 17.655,-13.857C21.017,-10.375 21.775,-6.489 21.924,-1.491C22.153,6.206 20.43,12.477 14.995,17.713C12.067,20.532 12.847,23.147 14.723,26.065C20.786,35.496 17.595,34.804 29.907,33.129C33.092,32.695 35.896,32.746 38.449,35.344C41.502,38.45 45.434,40.386 49.513,41.933C50.655,42.365 51.774,42.775 52.344,44.054C53.756,47.221 55.403,50.293 56.638,53.524C57.234,55.084 58.088,55.572 59.547,55.573C63.231,55.576 66.916,55.557 70.599,55.614C72.35,55.642 73.365,54.896 74.014,53.262C74.982,50.819 76.141,48.452 77.227,46.057C77.827,44.733 78.582,43.576 80.146,43.227C84.409,42.273 88.44,40.503 91.817,37.908C96.413,34.378 100.818,31.398 106.892,34.187M-32.165,-139.127C-37.692,-133.046 -43.924,-130.995 -51.097,-131.157C-56.481,-131.278 -61.871,-131.152 -67.257,-131.202C-68.561,-131.213 -69.513,-130.897 -70.492,-129.921C-73.092,-127.329 -76.324,-126.965 -79.287,-128.67C-81.908,-130.178 -83.312,-133.175 -82.787,-136.138C-82.237,-139.239 -79.843,-141.538 -76.682,-142.001C-73.292,-142.497 -70.563,-141.022 -68.997,-137.572C-68.489,-136.453 -67.996,-136.038 -66.753,-136.053C-60.422,-136.133 -54.085,-135.958 -47.759,-136.155C-39.631,-136.408 -32.462,-143.66 -32.333,-151.787C-32.161,-162.652 -32.226,-173.521 -32.166,-184.388C-32.159,-185.59 -32.446,-186.481 -33.46,-187.31C-45.95,-197.512 -66.975,-194.216 -75.879,-180.665C-76.742,-179.352 -76.535,-178.996 -75.094,-178.662C-72.144,-177.98 -69.313,-176.908 -66.674,-175.416C-65.001,-174.469 -63.53,-173.983 -61.438,-174.588C-57.172,-175.82 -53.083,-172.839 -52.559,-168.575C-52.061,-164.527 -55.038,-160.832 -59.098,-160.461C-63.419,-160.066 -67.035,-163.325 -66.886,-167.804C-66.826,-169.645 -67.522,-170.408 -69,-171.228C-84.314,-179.734 -104.404,-171.48 -111.768,-156.743C-121.914,-136.438 -110.711,-119.182 -93.255,-114.216C-90.979,-113.568 -88.879,-113.217 -87.585,-115.976C-87.268,-116.652 -86.348,-117.129 -85.608,-117.51C-82.262,-119.234 -78.135,-118.07 -76.148,-114.906C-74.098,-111.639 -74.999,-107.334 -78.197,-105.122C-81.332,-102.953 -85.382,-103.519 -87.876,-106.48C-88.747,-107.513 -89.192,-108.79 -90.994,-108.979C-99.472,-109.867 -106.414,-113.915 -111.947,-120.222C-113.705,-122.227 -114.708,-121.893 -116.413,-120.491C-133.57,-106.379 -131.811,-80.605 -112.906,-68.912C-111.14,-67.819 -109.839,-67.852 -108.073,-68.971C-103.056,-72.15 -97.514,-73.943 -91.579,-74.487C-84.313,-75.153 -77.033,-74.666 -69.761,-74.81C-68.547,-74.834 -67.532,-74.76 -66.646,-76.102C-64.568,-79.253 -61.421,-80.28 -58.302,-79.238C-55.341,-78.249 -53.303,-75.453 -53.294,-72.368C-53.286,-69.31 -55.36,-66.444 -58.275,-65.488C-61.446,-64.447 -64.576,-65.494 -66.646,-68.546C-67.332,-69.558 -68.005,-69.901 -69.154,-69.891C-76.146,-69.827 -83.151,-70.054 -90.129,-69.722C-96.444,-69.421 -102.483,-67.648 -107.381,-63.437C-123.645,-49.451 -123.568,-24.582 -107.325,-10.579C-95.295,-0.209 -79.189,0.627 -67.803,-8.485C-66.822,-9.271 -66.321,-9.757 -66.981,-11.195C-68.531,-14.568 -67.711,-17.735 -65.124,-19.871C-62.746,-21.834 -59.498,-22.105 -56.929,-20.552C-54.154,-18.875 -52.823,-15.887 -53.48,-12.811C-54.187,-9.498 -56.693,-7.349 -60.289,-7.008C-61.122,-6.929 -61.956,-7.077 -62.687,-6.423C-67.634,-1.991 -73.363,0.961 -79.837,2.374C-79.792,2.706 -79.79,2.899 -79.737,3.077C-74.342,21.562 -51.251,29.476 -34.844,18.568C-32.786,17.2 -32.093,15.794 -32.109,13.352C-32.222,-4.035 -32.161,-21.424 -32.172,-38.812C-32.172,-39.614 -31.95,-40.47 -32.619,-41.526C-39.321,-33.784 -48.146,-32.571 -57.596,-32.997C-62.688,-33.227 -67.801,-32.99 -72.903,-33.063C-74.587,-33.088 -75.797,-32.802 -76.943,-31.297C-78.848,-28.794 -82.343,-28.197 -85.166,-29.433C-88.106,-30.72 -89.817,-33.568 -89.526,-36.688C-89.239,-39.749 -87.175,-42.227 -84.245,-43.026C-81.233,-43.848 -78.053,-42.661 -76.283,-40.078C-75.644,-39.146 -75.494,-37.89 -73.763,-37.918C-65.543,-38.055 -57.313,-37.803 -49.102,-38.119C-40.878,-38.437 -32.106,-46.309 -32.203,-55.271C-32.336,-67.648 -32.187,-80.029 -32.169,-92.409C-32.165,-95.622 -32.182,-98.835 -32.227,-102.047C-32.236,-102.728 -31.947,-103.845 -33.1,-103.743C-35.417,-103.537 -37.945,-104.838 -39.793,-101.781C-41.892,-98.308 -46.939,-97.992 -50.03,-100.577C-53.186,-103.217 -53.553,-107.973 -50.831,-110.954C-47.964,-114.093 -42.84,-114.451 -40.335,-111.094C-38.59,-108.756 -36.697,-108.695 -34.314,-108.618C-32.438,-108.558 -32.12,-109.294 -32.14,-110.93C-32.213,-116.883 -32.166,-122.837 -32.165,-128.792C-32.164,-131.962 -32.165,-135.133 -32.165,-139.127M-2.285,-93.58L-2.285,-91.323C-2.288,-89.995 -2.29,-88.667 -2.293,-87.338C-2.125,-85.58 -0.75,-86.348 0.067,-86.343C8.977,-86.285 17.888,-86.348 26.797,-86.27C28.544,-86.254 29.718,-86.646 30.1,-88.464C30.305,-88.654 30.506,-88.846 30.715,-89.032C34.251,-92.174 38.64,-92.069 41.479,-88.776C44.117,-85.718 43.678,-80.927 40.528,-78.408C37.135,-75.694 32.763,-76.435 29.905,-80.194C29.635,-80.551 29.276,-80.84 28.958,-81.161C27.878,-81.649 26.734,-81.417 25.621,-81.422C12.93,-81.472 0.238,-81.497 -12.453,-81.528C-18.111,-82.571 -23.041,-85.028 -27.237,-90.043C-27.237,-80.972 -27.195,-72.85 -27.271,-64.73C-27.287,-63.033 -26.629,-62.677 -25.103,-62.71C-21.231,-62.794 -17.355,-62.807 -13.484,-62.706C-11.405,-62.652 -9.631,-62.758 -8.474,-64.914C-7.851,-66.076 -6.502,-66.619 -5.18,-66.947C-1.402,-67.887 2.151,-66.039 3.489,-62.432C4.723,-59.105 3.353,-55.404 0.248,-53.675C-3.076,-51.823 -7.012,-52.739 -9.233,-55.983C-9.945,-57.022 -10.457,-57.913 -12.014,-57.87C-16.451,-57.746 -20.895,-57.776 -25.334,-57.857C-26.82,-57.885 -27.265,-57.419 -27.257,-55.921C-27.203,-45.719 -27.251,-35.516 -27.22,-25.313C-27.218,-24.654 -27.609,-23.801 -26.666,-23.236C-22.649,-27.534 -17.692,-29.722 -11.785,-29.512C-10.38,-29.462 -10.145,-30.408 -9.624,-31.288C-7.843,-34.294 -4.874,-35.607 -1.717,-34.861C1.374,-34.131 3.596,-31.655 3.946,-28.553C4.287,-25.536 2.507,-22.505 -0.347,-21.242C-3.334,-19.92 -6.547,-20.545 -8.782,-23.238C-9.838,-24.512 -10.923,-24.823 -12.432,-24.754C-20.708,-24.373 -26.811,-18.198 -27.096,-9.36C-27.357,-1.243 -27.208,6.888 -27.225,15.013C-27.227,15.835 -27.301,16.621 -26.422,17.255C-20.31,21.662 -13.796,24.909 -5.989,24.319C-1.117,23.951 3.871,23.044 7.374,19.573C10.893,16.086 13.6,11.76 16.512,7.692C17.532,6.27 17.335,5.018 15.062,5.069C12.229,5.133 9.389,5.187 6.561,5.058C4.716,4.973 3.599,5.38 2.546,7.163C0.491,10.646 -4.4,11.255 -7.658,8.808C-10.902,6.37 -11.448,1.688 -8.864,-1.531C-6.346,-4.667 -1.183,-5.34 1.398,-2.263C3.442,0.173 5.643,0.355 8.314,0.237C10.483,0.142 12.66,0.225 14.833,0.204C15.452,0.198 16.475,0.454 16.492,-0.37C16.544,-2.892 18.087,-5.437 16.043,-7.951C13.247,-11.393 10.731,-15.062 8.006,-18.563C7.147,-19.666 7.03,-20.581 7.583,-21.875C9.482,-26.319 11.934,-30.427 14.479,-34.528C16.733,-38.157 19.451,-39.51 23.585,-38.387C25.104,-37.974 26.771,-38.109 28.37,-37.995C28.73,-37.717 29.115,-37.642 29.536,-37.85C30.467,-37.749 31.398,-37.648 32.33,-37.548C33.508,-37.441 34.692,-36.642 35.865,-37.399C38.284,-38.963 40.663,-40.589 43.442,-42.446C41.749,-42.453 40.446,-42.943 39.493,-41.612C37.729,-39.147 35.224,-38.389 32.336,-38.515C31.47,-38.878 30.54,-39.138 29.749,-39.625C27.152,-41.226 26.126,-43.646 26.442,-46.627C26.751,-49.544 28.823,-51.926 31.659,-52.69C34.598,-53.483 37.677,-52.923 38.932,-50.341C40.692,-46.722 43.281,-47.364 46.163,-47.5C48.212,-47.598 49.428,-48.325 50.151,-50.308C51.023,-52.695 52.268,-54.944 53.224,-57.306C53.812,-58.758 54.608,-59.468 56.286,-59.675C59.866,-60.115 63.442,-60.313 67.029,-60.133C68.674,-60.051 69.807,-60.45 70.904,-61.792C78.782,-71.43 81.468,-82.355 78.722,-94.424C75.853,-107.028 64.179,-121.209 46.435,-120.747C43.035,-120.659 39.628,-120.685 36.227,-120.78C34.433,-120.83 33.157,-120.477 31.89,-118.913C29.199,-115.591 24.296,-115.649 21.361,-118.702C18.364,-121.82 18.74,-126.811 22.173,-129.466C25.509,-132.045 30.439,-131.39 32.533,-127.68C33.606,-125.777 34.84,-125.655 36.608,-125.652C44.062,-125.64 51.594,-126.183 58.801,-123.695C60.928,-122.96 61.794,-123.718 62.777,-125.398C69.409,-136.738 68.404,-151.507 59.759,-162.053C51.164,-172.538 39.821,-176.612 26.622,-173.889C14.175,-171.321 6.92,-162.758 3.124,-150.975C2.583,-149.295 2.526,-147.825 3.695,-146.209C5.094,-144.274 5.098,-141.946 4.163,-139.716C2.843,-136.565 -0.123,-134.975 -3.657,-135.461C-6.802,-135.894 -9.253,-138.471 -9.639,-141.751C-10.027,-145.046 -8.152,-148.464 -4.881,-149.201C-2.491,-149.74 -1.832,-151.031 -1.251,-153.065C1.557,-162.91 7.724,-170.204 16.437,-175.334C18.545,-176.575 18.614,-177.441 17.411,-179.394C8.554,-193.773 -11.125,-197.709 -25.099,-187.87C-26.649,-186.778 -27.3,-185.644 -27.282,-183.704C-27.176,-172.552 -27.22,-161.398 -27.208,-150.245C-27.192,-134.649 -27.389,-119.049 -27.073,-103.459C-26.875,-93.717 -19.694,-86.939 -10.071,-86.349C-8.054,-86.225 -7.14,-86.61 -7.275,-88.892C-7.47,-92.189 -7.404,-95.508 -7.3,-98.813C-7.24,-100.704 -7.607,-102.076 -9.222,-103.414C-12.241,-105.915 -12.317,-110.392 -9.771,-113.332C-7.333,-116.145 -3.09,-116.602 -0.019,-114.381C4.508,-111.109 3.682,-105.033 -1.749,-101.657C-2.499,-101.479 -2.421,-100.952 -2.279,-100.397C-2.283,-100.205 -2.287,-100.011 -2.291,-99.818L-2.287,-99.264C-2.286,-97.37 -2.286,-95.475 -2.285,-93.58M-93.012,-178.156C-89.838,-178.553 -86.735,-179.482 -83.504,-179.445C-82.211,-179.43 -81.782,-180.438 -81.242,-181.308C-70.399,-198.783 -48.735,-203.451 -31.647,-191.912C-30.167,-190.912 -29.255,-190.841 -27.74,-191.881C-10.578,-203.653 11.927,-198.576 22.243,-180.585C23.284,-178.771 24.299,-178.396 26.244,-178.767C49.578,-183.221 71.078,-166.186 71.924,-142.566C72.181,-135.409 70.36,-128.699 66.678,-122.571C65.726,-120.987 65.911,-120.331 67.366,-119.247C86.13,-105.275 90.152,-80.883 76.876,-61.688C75.991,-60.408 76.01,-59.7 76.796,-58.279C78.663,-54.906 80.153,-51.312 81.604,-47.729C82.265,-46.098 83.175,-45.105 84.872,-44.576C88.966,-43.302 92.715,-41.267 96.12,-38.69C97.55,-37.608 98.921,-37.423 100.593,-37.639C104.057,-38.085 107.548,-38.333 111.012,-38.781C112.214,-38.938 112.896,-38.56 113.627,-37.645C117.488,-32.816 120.618,-27.573 123.02,-21.875C123.563,-20.585 123.556,-19.552 122.54,-18.564C117.251,-13.427 115.135,-7.44 117.023,-0.06C117.561,2.043 117.348,4.566 116.737,6.683C115.697,10.288 117.314,12.623 119.602,14.887C119.848,15.286 120.013,15.779 120.353,16.07C123.981,19.184 123.442,22.511 121.302,26.281C119.013,30.312 116.689,34.283 113.79,37.912C112.944,38.97 112.15,39.653 110.71,39.231C110.091,39.05 109.357,39.251 108.745,39.058C102.303,37.026 97.071,39.233 92.442,43.627C90.143,44.634 87.928,45.995 85.526,46.565C81.77,47.457 80.354,50.042 79.514,53.324C79.347,53.551 79.08,53.757 79.03,54.007C77.897,59.647 73.952,60.929 68.916,60.637C67.9,60.578 66.868,60.813 65.843,60.912C64.529,60.812 63.207,60.562 61.903,60.637C56.563,60.944 52.688,59.361 51.296,53.569C50.16,48.844 47.406,45.447 42.455,43.969C38.588,42.814 36.347,38.266 32.157,38.073C28.147,37.889 24.078,38.715 20.054,39.244C18.547,39.441 17.624,39.022 16.709,37.837C13.989,34.312 11.531,30.623 9.537,26.646C8.91,25.395 8.446,25.039 7.018,25.728C-5.123,31.588 -16.639,30.104 -27.443,22.377C-29.303,21.047 -30.546,21.425 -32.215,22.538C-49.542,34.096 -72.769,28.344 -82.088,9.65C-84.505,4.804 -86.935,2.898 -92.352,1.809C-121.954,-4.145 -134.196,-38.293 -115.528,-61.889C-114.128,-63.658 -114.408,-64.196 -116.177,-65.363C-127.633,-72.917 -133.494,-83.641 -133.082,-97.378C-132.742,-108.715 -127.571,-117.79 -118.721,-124.81C-117.971,-125.405 -116.836,-125.702 -117.492,-127.19C-120.348,-133.671 -120.813,-140.492 -120.152,-147.449C-116.899,-162.806 -107.677,-172.886 -93.012,-178.156" style="fill-rule:nonzero;"/>
            </g>
            <g transform="matrix(0.633635,0,0,0.633635,878.932,233.768)">
                <path d="M0,-48.294C-13.461,-48.191 -24.117,-37.487 -24.069,-24.115C-24.022,-10.731 -13.228,0.033 0.114,0C13.423,-0.033 24.33,-10.989 24.235,-24.231C24.14,-37.622 13.289,-48.396 0,-48.294M28.996,-23.913C29.388,-8.648 16.283,4.956 0.026,4.998C-15.854,5.038 -28.866,-8.081 -28.942,-24.261C-29.018,-40.161 -16.047,-53.117 -0.007,-53.226C15.645,-53.332 29.439,-40.487 28.996,-23.913" style="fill-rule:nonzero;"/>
            </g>
            <g transform="matrix(0.633635,0,0,0.633635,958.884,131.512)">
                <path d="M0,-56.792L17.075,-56.792L17.075,0L6.019,0L6.019,-38.413C6.019,-39.518 6.03,-41.065 6.058,-43.056C6.082,-45.046 6.096,-46.582 6.096,-47.66L-4.667,0L-16.2,0L-26.886,-47.66C-26.886,-46.582 -26.874,-45.046 -26.848,-43.056C-26.822,-41.065 -26.809,-39.518 -26.809,-38.413L-26.809,0L-37.868,0L-37.868,-56.792L-20.599,-56.792L-10.261,-12.136L0,-56.792Z" style="fill-rule:nonzero;"/>
            </g>
            <g transform="matrix(0.633635,0,0,0.633635,988.395,118.036)">
                <path d="M0,0.847C-0.704,1.284 -1.414,1.637 -2.129,1.907C-2.845,2.177 -3.827,2.427 -5.077,2.658L-7.578,3.12C-9.92,3.532 -11.603,4.033 -12.626,4.623C-14.354,5.625 -15.219,7.179 -15.219,9.285C-15.219,11.16 -14.691,12.516 -13.635,13.35C-12.579,14.185 -11.293,14.602 -9.78,14.602C-7.381,14.602 -5.172,13.909 -3.148,12.522C-1.128,11.134 -0.079,8.604 0,4.932L0,0.847ZM-6.715,-4.278C-4.671,-4.534 -3.209,-4.855 -2.328,-5.24C-0.75,-5.908 0.039,-6.948 0.039,-8.361C0.039,-10.082 -0.566,-11.27 -1.777,-11.925C-2.988,-12.58 -4.766,-12.907 -7.107,-12.907C-9.738,-12.907 -11.601,-12.265 -12.693,-10.981C-13.475,-10.03 -13.995,-8.746 -14.256,-7.128L-24.851,-7.128C-24.619,-10.801 -23.588,-13.819 -21.757,-16.183C-18.84,-19.882 -13.836,-21.731 -6.742,-21.731C-2.124,-21.731 1.979,-20.819 5.564,-18.995C9.15,-17.171 10.943,-13.729 10.943,-8.67L10.943,10.596C10.943,11.931 10.968,13.549 11.021,15.45C11.096,16.889 11.314,17.865 11.674,18.378C12.034,18.892 12.573,19.316 13.293,19.65L13.293,21.268L1.348,21.268C1.016,20.42 0.783,19.624 0.655,18.879C0.526,18.135 0.424,17.286 0.347,16.336C-1.178,17.98 -2.934,19.38 -4.924,20.536C-7.301,21.897 -9.987,22.578 -12.985,22.578C-16.809,22.578 -19.968,21.493 -22.46,19.322C-24.953,17.152 -26.199,14.076 -26.199,10.095C-26.199,4.932 -24.195,1.194 -20.184,-1.118C-17.983,-2.376 -14.749,-3.276 -10.48,-3.815L-6.715,-4.278Z" style="fill-rule:nonzero;"/>
            </g>
            <g transform="matrix(0.633635,0,0,0.633635,1014.82,122.235)">
                <path d="M0,-12.291C-0.205,-13.857 -0.733,-15.27 -1.583,-16.529C-2.82,-18.225 -4.737,-19.072 -7.338,-19.072C-11.046,-19.072 -13.582,-17.235 -14.947,-13.562C-15.668,-11.615 -16.028,-9.027 -16.028,-5.799C-16.028,-2.724 -15.668,-0.251 -14.947,1.618C-13.634,5.112 -11.162,6.858 -7.532,6.858C-4.955,6.858 -3.128,6.165 -2.047,4.777C-0.966,3.391 -0.308,1.593 -0.076,-0.617L11.136,-0.617C10.877,2.723 9.67,5.883 7.51,8.862C4.065,13.666 -1.039,16.066 -7.801,16.066C-14.564,16.066 -19.538,14.063 -22.728,10.057C-25.915,6.049 -27.509,0.854 -27.509,-5.53C-27.509,-12.734 -25.749,-18.34 -22.227,-22.347C-18.703,-26.354 -13.845,-28.357 -7.647,-28.357C-2.376,-28.357 1.937,-27.176 5.293,-24.813C8.646,-22.45 10.633,-18.276 11.25,-12.291L0,-12.291Z" style="fill-rule:nonzero;"/>
            </g>
            <g transform="matrix(0.633635,0,0,0.633635,1043.34,122.112)">
                <path d="M0,-26.93C2.11,-26.03 3.843,-24.655 5.198,-22.804C6.348,-21.235 7.052,-19.621 7.307,-17.964C7.564,-16.306 7.691,-13.599 7.691,-9.846L7.691,14.835L-3.521,14.835L-3.521,-10.74C-3.521,-13.003 -3.903,-14.828 -4.667,-16.216C-5.663,-18.17 -7.549,-19.148 -10.328,-19.148C-13.21,-19.148 -15.396,-18.177 -16.889,-16.235C-18.38,-14.295 -19.124,-11.524 -19.124,-7.924L-19.124,14.835L-30.106,14.835L-30.106,-41.765L-19.124,-41.765L-19.124,-21.73C-17.538,-24.17 -15.705,-25.872 -13.62,-26.835C-11.535,-27.798 -9.342,-28.28 -7.04,-28.28C-4.458,-28.28 -2.11,-27.829 0,-26.93" style="fill-rule:nonzero;"/>
            </g>
            <g transform="matrix(0.633635,0,0,0.633635,670.699,-136.585)">
                <path d="M602.323,381.113L613.46,381.113L613.46,423.11L602.323,423.11L602.323,381.113ZM613.46,376.104L602.323,376.104L602.323,365.97L613.46,365.97L613.46,376.104Z" style="fill-rule:nonzero;"/>
            </g>
            <g transform="matrix(0.633635,0,0,0.633635,1085.11,129.351)">
                <path d="M0,-36.179C2.751,-33.906 4.126,-30.136 4.126,-24.87L4.126,3.41L-7.125,3.41L-7.125,-22.136C-7.125,-24.344 -7.419,-26.039 -8.005,-27.221C-9.076,-29.379 -11.117,-30.458 -14.124,-30.458C-17.822,-30.458 -20.359,-28.878 -21.737,-25.719C-22.45,-24.048 -22.807,-21.917 -22.807,-19.323L-22.807,3.41L-33.788,3.41L-33.788,-38.511L-23.154,-38.511L-23.154,-32.384C-21.746,-34.542 -20.418,-36.096 -19.164,-37.046C-16.913,-38.742 -14.061,-39.589 -10.608,-39.589C-6.285,-39.589 -2.75,-38.452 0,-36.179" style="fill-rule:nonzero;"/>
            </g>
            <g transform="matrix(0.633635,0,0,0.633635,1098.62,125.157)">
                <path d="M0,-21.63C-1.553,-20.03 -2.527,-17.864 -2.926,-15.13L15.993,-15.13C15.792,-18.045 14.817,-20.256 13.067,-21.765C11.316,-23.275 9.146,-24.03 6.555,-24.03C3.737,-24.03 1.552,-23.229 0,-21.63M16.427,-31.116C19.356,-29.804 21.776,-27.733 23.685,-24.903C25.404,-22.408 26.521,-19.514 27.031,-16.221C27.327,-14.292 27.447,-11.513 27.393,-7.886L-3.195,-7.886C-3.024,-3.673 -1.561,-0.719 1.197,0.976C2.874,2.029 4.892,2.556 7.251,2.556C9.752,2.556 11.784,1.914 13.35,0.629C14.2,-0.065 14.954,-1.028 15.608,-2.261L26.82,-2.261C26.524,0.231 25.167,2.761 22.749,5.329C18.987,9.414 13.721,11.455 6.949,11.455C1.36,11.455 -3.572,9.733 -7.845,6.289C-12.117,2.844 -14.252,-2.761 -14.252,-10.525C-14.252,-17.8 -12.324,-23.379 -8.467,-27.261C-4.61,-31.143 0.395,-33.085 6.551,-33.085C10.206,-33.085 13.498,-32.428 16.427,-31.116" style="fill-rule:nonzero;"/>
            </g>
            <g transform="matrix(0.633635,0,0,0.633635,935.012,184.218)">
                <path d="M0,-56.792L11.868,-56.792L11.868,-10.21L40.225,-10.21L40.225,0L0,0L0,-56.792Z" style="fill-rule:nonzero;"/>
            </g>
            <g transform="matrix(0.633635,0,0,0.633635,969.423,177.863)">
                <path d="M0,-21.63C-1.551,-20.03 -2.526,-17.864 -2.925,-15.13L15.993,-15.13C15.794,-18.045 14.819,-20.256 13.068,-21.765C11.318,-23.275 9.146,-24.03 6.555,-24.03C3.736,-24.03 1.553,-23.23 0,-21.63M16.428,-31.116C19.358,-29.804 21.777,-27.733 23.685,-24.903C25.406,-22.408 26.521,-19.514 27.03,-16.221C27.326,-14.292 27.446,-11.514 27.393,-7.886L-3.195,-7.886C-3.023,-3.673 -1.559,-0.719 1.197,0.976C2.874,2.029 4.894,2.556 7.253,2.556C9.754,2.556 11.786,1.913 13.349,0.628C14.202,-0.065 14.956,-1.028 15.61,-2.261L26.82,-2.261C26.524,0.231 25.168,2.761 22.749,5.329C18.987,9.414 13.721,11.455 6.949,11.455C1.359,11.455 -3.57,9.733 -7.843,6.288C-12.117,2.844 -14.252,-2.761 -14.252,-10.526C-14.252,-17.8 -12.324,-23.379 -8.468,-27.261C-4.611,-31.143 0.396,-33.085 6.551,-33.085C10.206,-33.085 13.498,-32.428 16.428,-31.116" style="fill-rule:nonzero;"/>
            </g>
            <g transform="matrix(0.633635,0,0,0.633635,1002.59,170.743)">
                <path d="M0,0.847C-0.704,1.284 -1.414,1.637 -2.129,1.907C-2.845,2.177 -3.827,2.427 -5.077,2.658L-7.577,3.12C-9.92,3.531 -11.603,4.032 -12.626,4.623C-14.354,5.625 -15.219,7.179 -15.219,9.285C-15.219,11.16 -14.691,12.516 -13.635,13.349C-12.579,14.185 -11.293,14.602 -9.78,14.602C-7.38,14.602 -5.172,13.909 -3.148,12.522C-1.127,11.135 -0.079,8.604 0,4.931L0,0.847ZM-6.715,-4.278C-4.671,-4.534 -3.209,-4.855 -2.328,-5.241C-0.75,-5.908 0.039,-6.948 0.039,-8.361C0.039,-10.082 -0.566,-11.27 -1.777,-11.925C-2.988,-12.581 -4.766,-12.907 -7.107,-12.907C-9.738,-12.907 -11.601,-12.265 -12.693,-10.981C-13.475,-10.03 -13.995,-8.746 -14.256,-7.129L-24.851,-7.129C-24.619,-10.801 -23.588,-13.82 -21.757,-16.183C-18.84,-19.882 -13.836,-21.731 -6.742,-21.731C-2.123,-21.731 1.979,-20.819 5.564,-18.995C9.15,-17.171 10.943,-13.729 10.943,-8.67L10.943,10.596C10.943,11.931 10.969,13.549 11.021,15.45C11.096,16.889 11.314,17.865 11.674,18.379C12.034,18.891 12.573,19.316 13.293,19.65L13.293,21.267L1.349,21.267C1.016,20.42 0.783,19.624 0.656,18.88C0.526,18.135 0.424,17.287 0.347,16.336C-1.178,17.98 -2.934,19.38 -4.924,20.536C-7.301,21.897 -9.987,22.578 -12.985,22.578C-16.809,22.578 -19.968,21.492 -22.46,19.322C-24.953,17.152 -26.199,14.076 -26.199,10.095C-26.199,4.931 -24.195,1.194 -20.184,-1.118C-17.983,-2.376 -14.749,-3.276 -10.48,-3.815L-6.715,-4.278Z" style="fill-rule:nonzero;"/>
            </g>
            <g transform="matrix(0.633635,0,0,0.633635,1027.89,184.206)">
                <path d="M0,-42.96C0.139,-42.947 0.454,-42.928 0.943,-42.903L0.943,-31.652C0.249,-31.729 -0.368,-31.78 -0.907,-31.806C-1.445,-31.831 -1.882,-31.845 -2.217,-31.845C-6.634,-31.845 -9.602,-30.406 -11.117,-27.529C-11.965,-25.911 -12.388,-23.419 -12.388,-20.054L-12.388,0.019L-23.445,0.019L-23.445,-41.977L-12.967,-41.977L-12.967,-34.657C-11.271,-37.456 -9.795,-39.37 -8.535,-40.398C-6.481,-42.118 -3.809,-42.979 -0.521,-42.979C-0.315,-42.979 -0.144,-42.972 0,-42.96" style="fill-rule:nonzero;"/>
            </g>
            <g transform="matrix(0.633635,0,0,0.633635,1051.52,182.057)">
                <path d="M0,-36.178C2.75,-33.906 4.125,-30.135 4.125,-24.869L4.125,3.41L-7.126,3.41L-7.126,-22.135C-7.126,-24.344 -7.42,-26.038 -8.006,-27.22C-9.077,-29.378 -11.117,-30.457 -14.125,-30.457C-17.823,-30.457 -20.36,-28.877 -21.737,-25.718C-22.451,-24.047 -22.807,-21.916 -22.807,-19.322L-22.807,3.41L-33.789,3.41L-33.789,-38.51L-23.155,-38.51L-23.155,-32.383C-21.747,-34.541 -20.419,-36.095 -19.165,-37.045C-16.914,-38.741 -14.062,-39.588 -10.608,-39.588C-6.286,-39.588 -2.751,-38.451 0,-36.178" style="fill-rule:nonzero;"/>
            </g>
            <g transform="matrix(0.633635,0,0,0.633635,670.699,-31.1729)">
                <path d="M611.557,297.933L622.692,297.933L622.692,339.929L611.557,339.929L611.557,297.933ZM622.691,292.924L611.556,292.924L611.556,282.79L622.691,282.79L622.691,292.924Z" style="fill-rule:nonzero;"/>
            </g>
            <g transform="matrix(0.633635,0,0,0.633635,1090.95,182.057)">
                <path d="M0,-36.178C2.75,-33.906 4.126,-30.135 4.126,-24.869L4.126,3.41L-7.125,3.41L-7.125,-22.135C-7.125,-24.344 -7.419,-26.038 -8.005,-27.22C-9.076,-29.378 -11.117,-30.457 -14.124,-30.457C-17.822,-30.457 -20.36,-28.877 -21.737,-25.718C-22.45,-24.047 -22.807,-21.916 -22.807,-19.322L-22.807,3.41L-33.788,3.41L-33.788,-38.51L-23.154,-38.51L-23.154,-32.383C-21.747,-34.541 -20.418,-36.095 -19.165,-37.045C-16.913,-38.741 -14.061,-39.588 -10.608,-39.588C-6.285,-39.588 -2.75,-38.451 0,-36.178" style="fill-rule:nonzero;"/>
            </g>
            <g transform="matrix(0.633635,0,0,0.633635,1113.07,175.417)">
                <path d="M0,1.966C1.767,0.027 2.648,-3.063 2.648,-7.301C2.648,-11.282 1.811,-14.313 0.136,-16.394C-1.541,-18.475 -3.785,-19.515 -6.599,-19.515C-10.436,-19.515 -13.082,-17.704 -14.54,-14.082C-15.308,-12.156 -15.69,-9.779 -15.69,-6.954C-15.69,-4.513 -15.283,-2.344 -14.465,-0.442C-12.981,3.102 -10.32,4.874 -6.482,4.874C-3.926,4.874 -1.764,3.905 0,1.966M-3.738,-28.145C-1.071,-27.041 1.083,-25.011 2.726,-22.057L2.726,-28.106L13.437,-28.106L13.437,11.733C13.437,17.153 12.525,21.236 10.701,23.986C7.566,28.711 1.558,31.074 -7.33,31.074C-12.699,31.074 -17.078,30.021 -20.468,27.915C-23.86,25.808 -25.734,22.661 -26.095,18.475L-14.149,18.475C-13.842,19.759 -13.341,20.684 -12.646,21.249C-11.467,22.251 -9.475,22.752 -6.676,22.752C-2.721,22.752 -0.075,21.428 1.262,18.783C2.134,17.088 2.57,14.237 2.57,10.23L2.57,7.533C1.519,9.331 0.387,10.68 -0.819,11.578C-3.003,13.248 -5.841,14.082 -9.334,14.082C-14.728,14.082 -19.037,12.19 -22.261,8.4C-25.485,4.612 -27.097,-0.52 -27.097,-6.993C-27.097,-13.234 -25.543,-18.48 -22.44,-22.732C-19.337,-26.983 -14.937,-29.108 -9.241,-29.108C-7.139,-29.108 -5.305,-28.787 -3.738,-28.145" style="fill-rule:nonzero;"/>
            </g>
            <g transform="matrix(-0.633635,0,0,0.633635,1205.57,83.0621)">
                <rect x="416.174" y="192.821" width="11.79" height="56.792"/>
            </g>
            <g transform="matrix(0.633635,0,0,0.633635,953.703,234.976)">
                <path d="M0,-37.064L0,0L10.961,0C16.567,0 20.479,-2.759 22.69,-8.284C23.899,-11.314 24.505,-14.923 24.505,-19.111C24.505,-24.889 23.598,-29.327 21.783,-32.421C19.97,-35.517 16.362,-37.064 10.961,-37.064L0,-37.064ZM21.757,-45.695C25.741,-44.385 28.967,-41.983 31.437,-38.49C33.415,-35.665 34.766,-32.608 35.484,-29.321C36.204,-26.033 36.563,-22.898 36.563,-19.918C36.563,-12.367 35.048,-5.971 32.015,-0.731C27.901,6.332 21.552,9.864 12.966,9.864L-11.521,9.864L-11.521,-46.928L12.966,-46.928C16.488,-46.877 19.418,-46.466 21.757,-45.695" style="fill-rule:nonzero;"/>
            </g>
        </g>
    </g>
</svg>
